#N canvas 687 197 529 312 10;
#N canvas 1055 193 450 300 receiveGameEngine 1;
#X obj 29 69 oscparse;
#X obj 29 94 unpack s 0 0 0 0;
#X obj 37 193 outlet;
#X obj 109 193 outlet;
#X obj 182 193 outlet;
#X obj 248 193 outlet;
#X text 37 217 objectId, f 9;
#X text 109 217 presetId, f 9;
#X text 182 217 param1, f 9;
#X text 248 217 param2, f 9;
#X msg 29 19 listen 9002;
#X obj 29 44 netreceive -u -b 9002;
#X connect 0 0 1 0;
#X connect 1 1 2 0;
#X connect 1 2 3 0;
#X connect 1 3 4 0;
#X connect 1 4 5 0;
#X connect 10 0 11 0;
#X connect 11 0 0 0;
#X restore 128 57 pd receiveGameEngine;
#X obj 124 120 print object;
#X obj 124 142 print preset;
#X obj 124 164 print param1;
#X obj 124 186 print param2;
#X connect 0 0 1 0;
#X connect 0 1 2 0;
#X connect 0 2 3 0;
#X connect 0 3 4 0;
