#N canvas 399 23 1226 929 10;
#X declare -path Chords-Roll;
#X declare -path Rhodey;
#X declare -path Rhodey/rj;
#X floatatom 46 332 5 0 0 0 - - -, f 5;
#X obj 46 353 * 2;
#X obj 46 301 spigot 0;
#X obj 250 258 tgl 15 0 empty empty empty 17 7 0 10 -262144 -1 -1 0
1;
#X obj 375 259 valueChanged;
#X obj 46 252 valueChanged;
#X obj 460 292 print new preset;
#X obj 51 21 declare -path Chords-Roll;
#X obj 43 899 outlet~;
#X obj 250 898 outlet;
#X obj 53 76 inlet datas;
#X obj 52 147 s \$0-state;
#X obj 250 235 r \$0-state;
#X obj 135 147 s \$0-preset;
#X obj 375 236 r \$0-preset;
#X text 237 170 facette;
#X floatatom 46 402 5 0 0 0 - - -, f 5;
#X obj 46 431 makenote 100 1000;
#X obj 48 467 pack f f;
#X obj 67 495 print makenote;
#X obj 46 375 + 80;
#X obj 53 106 unpack 0 0 0 0 0 0 0 0;
#X obj 460 315 hradio 15 1 0 5 empty empty empty 0 -8 0 10 -262144
-1 -1 0;
#X obj 224 147 s \$0-param0;
#X obj 46 231 r \$0-param0;
#X obj 67 273 print new param0;
#X obj 250 23 declare -path Rhodey;
#X obj 250 43 declare -path Rhodey/rj;
#X text 307 441 store preset number;
#X obj 275 439 i;
#X obj 48 566 list prepend;
#X floatatom 282 465 5 0 0 0 - - -, f 5;
#X obj 65 593 print list makeNoteVI;
#X obj 484 104 loadbang;
#X obj 484 129 t b b;
#X obj 484 153 0;
#X obj 516 153 1;
#X text 481 81 avoid bug on init;
#X obj 48 639 route 0 1 2 3 4, f 35;
#X obj 66 833 ChordsRoll_main2;
#X obj 240 830 Rhodey_main2;
#X obj 140 702 pack 0.5 0.5 0.5 0.5 2;
#X obj 187 732 pack 0.5 0.5 0.5 0.5 3;
#X obj 284 793 pack 0.5 0.7 1 0.5 0;
#X obj 113 670 pack 0.2 1 0.6 0.6 0;
#X obj 236 762 pack 0.5 0.7 0.7 0.7 3;
#X obj 561 545 bng 15 250 50 0 empty empty empty 17 7 0 10 -262144
-1 -1;
#X obj 562 513 bng 15 250 50 0 empty empty empty 17 7 0 10 -262144
-1 -1;
#X obj 560 605 bng 15 250 50 0 empty empty empty 17 7 0 10 -262144
-1 -1;
#X obj 560 573 bng 15 250 50 0 empty empty empty 17 7 0 10 -262144
-1 -1;
#X obj 559 635 bng 15 250 50 0 empty empty empty 17 7 0 10 -262144
-1 -1;
#X obj 563 474 route 0 1 2 3 4, f 35;
#X text 568 446 select VI with preset number;
#X connect 0 0 1 0;
#X connect 1 0 20 0;
#X connect 2 0 0 0;
#X connect 3 0 2 1;
#X connect 3 0 9 0;
#X connect 4 0 6 0;
#X connect 4 0 22 0;
#X connect 4 0 29 0;
#X connect 5 0 2 0;
#X connect 5 0 25 0;
#X connect 10 0 21 0;
#X connect 12 0 3 0;
#X connect 14 0 4 0;
#X connect 16 0 17 0;
#X connect 17 0 18 0;
#X connect 17 1 18 1;
#X connect 18 0 19 0;
#X connect 18 0 30 0;
#X connect 20 0 16 0;
#X connect 21 0 11 0;
#X connect 21 1 13 0;
#X connect 21 2 23 0;
#X connect 22 0 51 0;
#X connect 24 0 5 0;
#X connect 29 0 30 1;
#X connect 29 0 31 0;
#X connect 30 0 32 0;
#X connect 30 0 38 0;
#X connect 33 0 34 0;
#X connect 34 0 35 0;
#X connect 34 1 36 0;
#X connect 35 0 4 0;
#X connect 36 0 4 0;
#X connect 38 0 39 0;
#X connect 38 1 39 0;
#X connect 38 2 39 0;
#X connect 38 3 39 0;
#X connect 38 4 40 0;
#X connect 39 0 8 0;
#X connect 40 0 8 0;
#X connect 41 0 39 1;
#X connect 42 0 39 1;
#X connect 43 0 40 1;
#X connect 44 0 39 1;
#X connect 45 0 39 1;
#X connect 46 0 41 0;
#X connect 47 0 44 0;
#X connect 48 0 45 0;
#X connect 49 0 42 0;
#X connect 50 0 43 0;
#X connect 51 0 47 0;
#X connect 51 1 46 0;
#X connect 51 2 49 0;
#X connect 51 3 48 0;
#X connect 51 4 50 0;
