#N canvas 454 55 1226 929 10;
#X obj 46 301 spigot 0;
#X obj 250 258 tgl 15 0 empty empty empty 17 7 0 10 -262144 -1 -1 0
1;
#X obj 375 259 valueChanged;
#X obj 46 252 valueChanged;
#X obj 460 292 print new preset;
#X obj 43 899 outlet~;
#X obj 250 898 outlet;
#X obj 53 36 inlet datas;
#X obj 52 107 s \$0-state;
#X obj 250 235 r \$0-state;
#X obj 135 107 s \$0-preset;
#X obj 375 236 r \$0-preset;
#X text 237 130 facette;
#X obj 46 467 makenote 100 1000;
#X obj 48 493 pack f f;
#X obj 67 521 print makenote;
#X obj 53 66 unpack 0 0 0 0 0 0 0 0;
#X obj 460 315 hradio 15 1 0 5 empty empty empty 0 -8 0 10 -262144
-1 -1 0;
#X obj 224 107 s \$0-param0;
#X obj 46 231 r \$0-param0;
#X obj 67 273 print new param0;
#X text 307 441 store preset number;
#X obj 275 439 i;
#X obj 48 566 list prepend;
#X floatatom 282 465 5 0 0 0 - - -, f 5;
#X obj 65 593 print list makeNoteVI;
#X obj 484 64 loadbang;
#X obj 484 89 t b b;
#X obj 484 113 0;
#X obj 516 113 1;
#X text 481 41 avoid bug on init;
#X obj 48 639 route 0 1 2 3 4, f 35;
#X obj 66 833 ChordsRoll_main2;
#X obj 190 860 Rhodey_main2;
#X obj 178 708 pack 0.5 0.5 0.5 0.5 3;
#X obj 234 823 pack 0.5 0.7 1 0.5 0;
#X obj 227 738 pack 0.5 0.7 0.7 0.7 3;
#X obj 561 545 bng 15 250 50 0 empty empty empty 17 7 0 10 -262144
-1 -1;
#X obj 562 513 bng 15 250 50 0 empty empty empty 17 7 0 10 -262144
-1 -1;
#X obj 560 605 bng 15 250 50 0 empty empty empty 17 7 0 10 -262144
-1 -1;
#X obj 560 573 bng 15 250 50 0 empty empty empty 17 7 0 10 -262144
-1 -1;
#X obj 559 635 bng 15 250 50 0 empty empty empty 17 7 0 10 -262144
-1 -1;
#X obj 563 474 route 0 1 2 3 4, f 35;
#X text 568 446 select VI with preset number;
#X obj 145 337 hradio 15 1 0 7 empty empty empty 0 -8 0 10 -262144
-1 -1 -1;
#X msg 46 410 62;
#X msg 86 410 67;
#X obj 113 670 pack 0.8 1 0.6 0.6 0;
#X obj 444 823 pack 0.5 0.5 0.5 0.5 0;
#X obj 400 860 Cassette-808_main2;
#X obj 46 359 route 0 1 2 3 4 5 6, f 35;
#X obj 45 387 bng 15 250 50 0 empty empty empty 17 7 0 10 -262144 -1
-1;
#X obj 85 387 bng 15 250 50 0 empty empty empty 17 7 0 10 -262144 -1
-1;
#X obj 125 387 bng 15 250 50 0 empty empty empty 17 7 0 10 -262144
-1 -1;
#X obj 165 387 bng 15 250 50 0 empty empty empty 17 7 0 10 -262144
-1 -1;
#X obj 205 387 bng 15 250 50 0 empty empty empty 17 7 0 10 -262144
-1 -1;
#X obj 245 387 bng 15 250 50 0 empty empty empty 17 7 0 10 -262144
-1 -1;
#X obj 285 387 bng 15 250 50 0 empty empty empty 17 7 0 10 -262144
-1 -1;
#X msg 126 410 70;
#X msg 206 410 74;
#X msg 246 411 79;
#X msg 166 410 73;
#X msg 284 410 82;
#X obj 46 327 - 1;
#X obj 1481 736 s 808-notes;
#X text 77 327 <--- /!/ a supprimer apres modif Simon;
#X connect 0 0 63 0;
#X connect 1 0 0 1;
#X connect 1 0 6 0;
#X connect 2 0 4 0;
#X connect 2 0 17 0;
#X connect 2 0 22 0;
#X connect 3 0 0 0;
#X connect 3 0 20 0;
#X connect 7 0 16 0;
#X connect 9 0 1 0;
#X connect 11 0 2 0;
#X connect 13 0 14 0;
#X connect 13 1 14 1;
#X connect 14 0 15 0;
#X connect 14 0 23 0;
#X connect 16 0 8 0;
#X connect 16 1 10 0;
#X connect 16 2 18 0;
#X connect 17 0 42 0;
#X connect 19 0 3 0;
#X connect 22 0 23 1;
#X connect 22 0 24 0;
#X connect 23 0 25 0;
#X connect 23 0 31 0;
#X connect 26 0 27 0;
#X connect 27 0 28 0;
#X connect 27 1 29 0;
#X connect 28 0 2 0;
#X connect 29 0 2 0;
#X connect 31 0 32 0;
#X connect 31 1 32 0;
#X connect 31 2 32 0;
#X connect 31 3 33 0;
#X connect 31 4 49 0;
#X connect 32 0 5 0;
#X connect 33 0 5 0;
#X connect 34 0 32 1;
#X connect 35 0 33 1;
#X connect 36 0 32 1;
#X connect 37 0 34 0;
#X connect 38 0 47 0;
#X connect 39 0 35 0;
#X connect 40 0 36 0;
#X connect 41 0 48 0;
#X connect 42 0 38 0;
#X connect 42 1 37 0;
#X connect 42 2 40 0;
#X connect 42 3 39 0;
#X connect 42 4 41 0;
#X connect 45 0 13 0;
#X connect 46 0 13 0;
#X connect 47 0 32 1;
#X connect 48 0 49 1;
#X connect 49 0 5 0;
#X connect 50 0 51 0;
#X connect 50 1 52 0;
#X connect 50 2 53 0;
#X connect 50 3 54 0;
#X connect 50 4 55 0;
#X connect 50 5 56 0;
#X connect 50 6 57 0;
#X connect 51 0 45 0;
#X connect 52 0 46 0;
#X connect 53 0 58 0;
#X connect 54 0 61 0;
#X connect 55 0 59 0;
#X connect 56 0 60 0;
#X connect 57 0 62 0;
#X connect 58 0 13 0;
#X connect 59 0 13 0;
#X connect 60 0 13 0;
#X connect 61 0 13 0;
#X connect 62 0 13 0;
#X connect 63 0 44 0;
#X connect 63 0 50 0;
