#N canvas 229 32 1490 894 10;
#X obj 1060 243 tgl 15 0 empty empty empty 17 7 0 10 -262144 -1 -1
0 1;
#X obj 1185 244 valueChanged;
#X obj 1220 267 print new preset;
#X obj 53 26 inlet datas;
#X obj 52 86 s \$0-state;
#X obj 1060 220 r \$0-state;
#X obj 135 86 s \$0-preset;
#X obj 224 86 s \$0-param1;
#X obj 1185 221 r \$0-preset;
#X obj 53 56 unpack 0 0 0 0 0 0 0 0, f 69;
#X obj 313 86 s \$0-param2;
#X obj 403 86 s \$0-param3;
#X obj 492 86 s \$0-param4;
#X obj 573 86 s \$0-param5;
#X obj 662 86 s \$0-param6;
#X obj 40 224 r \$0-param1;
#X text 237 109 cratere;
#X text 326 109 cratere;
#X text 416 109 cratere;
#X text 505 109 cratere;
#X text 586 109 cratere;
#X text 675 108 cratere;
#X obj 39 590 pack f f;
#X obj 63 653 print ocarina;
#X msg 39 614 \$1 \$2;
#X obj 93 372 tgl 15 0 empty empty empty 17 7 0 10 -262144 -1 -1 0
1;
#X obj 40 268 valueChanged;
#X obj 61 289 print new param1;
#X obj 40 245 spigot 0;
#X obj 100 245 r \$0-state;
#X obj 190 268 valueChanged;
#X obj 190 245 spigot 0;
#X obj 250 245 r \$0-state;
#X obj 190 224 r \$0-param2;
#X obj 211 289 print new param2;
#X obj 349 268 valueChanged;
#X obj 349 245 spigot 0;
#X obj 409 245 r \$0-state;
#X obj 349 224 r \$0-param3;
#X obj 370 289 print new param3;
#X obj 500 268 valueChanged;
#X obj 500 245 spigot 0;
#X obj 560 245 r \$0-state;
#X obj 650 268 valueChanged;
#X obj 650 245 spigot 0;
#X obj 710 245 r \$0-state;
#X obj 809 268 valueChanged;
#X obj 809 245 spigot 0;
#X obj 869 245 r \$0-state;
#X obj 500 224 r \$0-param4;
#X obj 521 289 print new param4;
#X obj 650 224 r \$0-param5;
#X obj 671 289 print new param5;
#X obj 809 224 r \$0-param6;
#X obj 830 289 print new param6;
#X msg 40 338 62;
#X msg 190 338 67;
#X msg 349 338 70;
#X msg 500 338 73;
#X msg 650 338 74;
#X msg 809 338 79;
#X obj 1223 103 loadbang;
#X obj 1223 128 t b b;
#X obj 1223 152 0;
#X obj 1255 152 1;
#X text 1220 80 avoid bug on init;
#X obj 1220 294 hradio 15 1 0 5 empty empty empty 0 -8 0 10 -262144
-1 -1 0;
#X text 690 558 store preset number;
#X obj 658 556 i;
#X obj 431 683 list prepend;
#X floatatom 665 582 5 0 0 0 - - -, f 5;
#X obj 448 710 print list makeNoteVI;
#X obj 1251 524 bng 15 250 50 0 empty empty empty 17 7 0 10 -262144
-1 -1;
#X obj 1252 492 bng 15 250 50 0 empty empty empty 17 7 0 10 -262144
-1 -1;
#X obj 1250 584 bng 15 250 50 0 empty empty empty 17 7 0 10 -262144
-1 -1;
#X obj 1252 556 bng 15 250 50 0 empty empty empty 17 7 0 10 -262144
-1 -1;
#X obj 1249 614 bng 15 250 50 0 empty empty empty 17 7 0 10 -262144
-1 -1;
#X obj 1253 453 route 0 1 2 3 4, f 35;
#X text 1258 425 select VI with preset number;
#X obj 40 312 t f b, f 8;
#X obj 190 312 t f b, f 8;
#X obj 349 312 t f b, f 8;
#X obj 500 312 t f b, f 8;
#X obj 650 312 t f b, f 8;
#X obj 809 312 t f b, f 8;
#X obj 243 372 tgl 15 0 empty empty empty 17 7 0 10 -262144 -1 -1 0
1;
#X obj 402 372 tgl 15 0 empty empty empty 17 7 0 10 -262144 -1 -1 0
1;
#X obj 554 372 tgl 15 0 empty empty empty 17 7 0 10 -262144 -1 -1 0
1;
#X obj 703 372 tgl 15 0 empty empty empty 17 7 0 10 -262144 -1 -1 0
1;
#X obj 862 372 tgl 15 0 empty empty empty 17 7 0 10 -262144 -1 -1 0
1;
#X text 101 632 (makenote equiv : 82 150 / 82 0);
#X obj 93 394 * 100;
#X text 101 615 0 or 1 *150 for the velocity (note on / note off);
#X obj 243 394 * 100;
#X obj 403 394 * 100;
#X obj 553 394 * 100;
#X obj 703 394 * 100;
#X obj 853 394 * 100;
#X obj 1056 880 outlet;
#X obj 421 778 route 0 1 2 3 4, f 35;
#X obj 699 919 pack 0.5 0.7 1 0.5 0;
#X obj 697 892 pack 0.5 0.5 0.5 0.5 0;
#X obj 696 814 pack 0.5 0.7 0.5 0.8 0;
#X obj 696 839 pack 0.3 0.9 0.5 0.5 0;
#X obj 696 866 pack 0.8 0.7 0.5 0.8 0;
#X obj 416 971 outlet;
#X obj 497 969 outlet;
#X obj 825 496 +;
#X msg 974 491 100;
#X msg 949 440 0;
#X msg 967 465 200;
#X msg 1010 515 300;
#X connect 0 0 98 0;
#X connect 1 0 2 0;
#X connect 1 0 66 0;
#X connect 1 0 68 0;
#X connect 3 0 9 0;
#X connect 5 0 0 0;
#X connect 8 0 1 0;
#X connect 9 0 4 0;
#X connect 9 1 6 0;
#X connect 9 2 7 0;
#X connect 9 3 10 0;
#X connect 9 4 11 0;
#X connect 9 5 12 0;
#X connect 9 6 13 0;
#X connect 9 7 14 0;
#X connect 15 0 28 0;
#X connect 22 0 24 0;
#X connect 24 0 23 0;
#X connect 24 0 69 0;
#X connect 25 0 91 0;
#X connect 26 0 27 0;
#X connect 26 0 79 0;
#X connect 28 0 26 0;
#X connect 29 0 28 1;
#X connect 30 0 34 0;
#X connect 30 0 80 0;
#X connect 31 0 30 0;
#X connect 32 0 31 1;
#X connect 33 0 31 0;
#X connect 35 0 39 0;
#X connect 35 0 81 0;
#X connect 36 0 35 0;
#X connect 37 0 36 1;
#X connect 38 0 36 0;
#X connect 40 0 50 0;
#X connect 40 0 82 0;
#X connect 41 0 40 0;
#X connect 42 0 41 1;
#X connect 43 0 52 0;
#X connect 43 0 83 0;
#X connect 44 0 43 0;
#X connect 45 0 44 1;
#X connect 46 0 54 0;
#X connect 46 0 84 0;
#X connect 47 0 46 0;
#X connect 48 0 47 1;
#X connect 49 0 41 0;
#X connect 51 0 44 0;
#X connect 53 0 47 0;
#X connect 55 0 107 0;
#X connect 56 0 107 0;
#X connect 57 0 107 0;
#X connect 58 0 107 0;
#X connect 59 0 107 0;
#X connect 60 0 107 0;
#X connect 61 0 62 0;
#X connect 62 0 63 0;
#X connect 62 1 64 0;
#X connect 63 0 1 0;
#X connect 64 0 1 0;
#X connect 66 0 77 0;
#X connect 68 0 69 1;
#X connect 68 0 70 0;
#X connect 69 0 71 0;
#X connect 69 0 99 0;
#X connect 72 0 103 0;
#X connect 72 0 111 0;
#X connect 73 0 102 0;
#X connect 73 0 111 0;
#X connect 74 0 101 0;
#X connect 74 0 108 0;
#X connect 75 0 104 0;
#X connect 75 0 109 0;
#X connect 76 0 100 0;
#X connect 76 0 110 0;
#X connect 77 0 73 0;
#X connect 77 1 72 0;
#X connect 77 2 75 0;
#X connect 77 3 74 0;
#X connect 77 4 76 0;
#X connect 79 0 55 0;
#X connect 79 1 25 0;
#X connect 80 0 56 0;
#X connect 80 1 85 0;
#X connect 81 0 57 0;
#X connect 81 1 86 0;
#X connect 82 0 58 0;
#X connect 82 1 87 0;
#X connect 83 0 59 0;
#X connect 83 1 88 0;
#X connect 84 0 60 0;
#X connect 84 1 89 0;
#X connect 85 0 93 0;
#X connect 86 0 94 0;
#X connect 87 0 95 0;
#X connect 88 0 96 0;
#X connect 89 0 97 0;
#X connect 91 0 22 1;
#X connect 93 0 22 1;
#X connect 94 0 22 1;
#X connect 95 0 22 1;
#X connect 96 0 22 1;
#X connect 97 0 22 1;
#X connect 99 0 105 0;
#X connect 99 1 105 0;
#X connect 99 2 105 0;
#X connect 99 3 105 0;
#X connect 99 4 105 0;
#X connect 100 0 106 0;
#X connect 101 0 106 0;
#X connect 102 0 106 0;
#X connect 103 0 106 0;
#X connect 104 0 106 0;
#X connect 107 0 22 0;
#X connect 108 0 107 1;
#X connect 109 0 107 1;
#X connect 110 0 107 1;
#X connect 111 0 107 1;
