#N canvas 217 23 1123 799 10;
#X declare -path Rhodey;
#X declare -path Rhodey/rj;
#X obj 1060 243 tgl 15 0 empty empty empty 17 7 0 10 -262144 -1 -1
1 1;
#X obj 1185 311 t b f;
#X obj 1185 244 valueChanged;
#X obj 1220 267 print new preset;
#X obj 39 737 outlet~;
#X obj 1060 743 outlet;
#X obj 53 76 inlet datas;
#X obj 52 136 s \$0-state;
#X obj 1060 220 r \$0-state;
#X obj 135 136 s \$0-preset;
#X obj 224 136 s \$0-param1;
#X obj 1185 221 r \$0-preset;
#X obj 53 106 unpack 0 0 0 0 0 0 0 0, f 69;
#X obj 51 21 declare -path Rhodey;
#X obj 51 41 declare -path Rhodey/rj;
#X obj 313 136 s \$0-param2;
#X obj 403 136 s \$0-param3;
#X obj 492 136 s \$0-param4;
#X obj 573 136 s \$0-param5;
#X obj 662 136 s \$0-param6;
#X obj 39 696 Rhodey_main 0.5 0.7 1 0.5 0;
#X obj 40 224 r \$0-param1;
#X text 237 159 cratere;
#X text 326 159 cratere;
#X text 416 159 cratere;
#X text 505 159 cratere;
#X text 586 159 cratere;
#X text 675 158 cratere;
#X obj 497 533 * 100;
#X floatatom 521 557 5 0 0 0 - - -, f 5;
#X obj 39 589 pack f f;
#X obj 72 653 print ocarina;
#X msg 39 614 \$1 \$2;
#X obj 40 312 t f f, f 8;
#X obj 497 512 tgl 15 0 empty empty empty 17 7 0 10 -262144 -1 -1 0
1;
#X text 101 615 0 or 1 *100 for the note on / note off;
#X text 101 632 (makenote equiv : 82 100 / 82 0);
#X obj 40 268 valueChanged;
#X obj 61 289 print new param1;
#X obj 40 245 spigot 0;
#X obj 100 245 r \$0-state;
#X obj 190 312 t f f, f 8;
#X obj 190 268 valueChanged;
#X obj 190 245 spigot 0;
#X obj 250 245 r \$0-state;
#X obj 190 224 r \$0-param2;
#X obj 211 289 print new param2;
#X obj 349 312 t f f, f 8;
#X obj 349 268 valueChanged;
#X obj 349 245 spigot 0;
#X obj 409 245 r \$0-state;
#X obj 349 224 r \$0-param3;
#X obj 370 289 print new param3;
#X obj 500 312 t f f, f 8;
#X obj 500 268 valueChanged;
#X obj 500 245 spigot 0;
#X obj 560 245 r \$0-state;
#X obj 650 312 t f f, f 8;
#X obj 650 268 valueChanged;
#X obj 650 245 spigot 0;
#X obj 710 245 r \$0-state;
#X obj 809 312 t f f, f 8;
#X obj 809 268 valueChanged;
#X obj 809 245 spigot 0;
#X obj 869 245 r \$0-state;
#X obj 500 224 r \$0-param4;
#X obj 521 289 print new param4;
#X obj 650 224 r \$0-param5;
#X obj 671 289 print new param5;
#X obj 809 224 r \$0-param6;
#X obj 830 289 print new param6;
#X msg 40 338 62;
#X msg 190 338 67;
#X msg 349 338 70;
#X msg 500 338 73;
#X msg 650 338 74;
#X msg 809 338 79;
#X connect 0 0 5 0;
#X connect 2 0 3 0;
#X connect 2 0 1 0;
#X connect 6 0 12 0;
#X connect 8 0 0 0;
#X connect 11 0 2 0;
#X connect 12 0 7 0;
#X connect 12 1 9 0;
#X connect 12 2 10 0;
#X connect 12 3 15 0;
#X connect 12 4 16 0;
#X connect 12 5 17 0;
#X connect 12 6 18 0;
#X connect 12 7 19 0;
#X connect 20 0 4 0;
#X connect 21 0 39 0;
#X connect 28 0 29 0;
#X connect 28 0 30 1;
#X connect 30 0 32 0;
#X connect 32 0 20 0;
#X connect 32 0 31 0;
#X connect 33 0 71 0;
#X connect 33 1 34 0;
#X connect 34 0 28 0;
#X connect 37 0 38 0;
#X connect 37 0 33 0;
#X connect 39 0 37 0;
#X connect 40 0 39 1;
#X connect 41 0 72 0;
#X connect 41 1 34 0;
#X connect 42 0 41 0;
#X connect 42 0 46 0;
#X connect 43 0 42 0;
#X connect 44 0 43 1;
#X connect 45 0 43 0;
#X connect 47 0 73 0;
#X connect 47 1 34 0;
#X connect 48 0 47 0;
#X connect 48 0 52 0;
#X connect 49 0 48 0;
#X connect 50 0 49 1;
#X connect 51 0 49 0;
#X connect 53 0 74 0;
#X connect 53 1 34 0;
#X connect 54 0 53 0;
#X connect 54 0 66 0;
#X connect 55 0 54 0;
#X connect 56 0 55 1;
#X connect 57 0 75 0;
#X connect 57 1 34 0;
#X connect 58 0 57 0;
#X connect 58 0 68 0;
#X connect 59 0 58 0;
#X connect 60 0 59 1;
#X connect 61 0 76 0;
#X connect 61 1 34 0;
#X connect 62 0 61 0;
#X connect 62 0 70 0;
#X connect 63 0 62 0;
#X connect 64 0 63 1;
#X connect 65 0 55 0;
#X connect 67 0 59 0;
#X connect 69 0 63 0;
#X connect 71 0 30 0;
#X connect 72 0 30 0;
#X connect 73 0 30 0;
#X connect 74 0 30 0;
#X connect 75 0 30 0;
#X connect 76 0 30 0;
