#N canvas 97 281 1160 620 10;
#X text 36 35 TEST;
#X msg 41 90 connect localhost 9002;
#X obj 41 67 loadbang;
#X msg 49 114 disconnect;
#N canvas 0 23 759 551 Rpi_sendOSC 0;
#X obj 33 252 netsend -u -b;
#X obj 63 189 list prepend send;
#X obj 63 214 list trim;
#X text 128 253 send as UDP;
#X obj 64 141 oscformat datas;
#X text 34 38 SOUNDDEVICE0;
#X obj 35 70 inlet;
#X obj 64 98 inlet;
#X connect 1 0 2 0;
#X connect 2 0 0 0;
#X connect 4 0 1 0;
#X connect 6 0 0 0;
#X connect 7 0 4 0;
#X restore 41 454 pd Rpi_sendOSC;
#X obj 147 378 bng 15 250 50 0 empty empty empty 17 7 0 10 -262144
-1 -1;
#X obj 290 174 tgl 15 0 empty empty empty 17 7 0 10 -261682 -1 -1 1
1;
#X text 143 231 presetId (+ send);
#X obj 290 199 t b f;
#X text 168 378 send;
#X text 7 306 objectId (+ send);
#X text 289 154 state;
#X obj 148 273 t b f;
#X text 7 320 grelot \, ocarina \, bolstick;
#X obj 373 230 t b f;
#X obj 373 174 hradio 15 1 1 8 empty empty empty 0 -8 0 10 -261682
-1 -1 3;
#X obj 148 250 hradio 15 1 1 5 empty empty empty 0 -8 0 10 -261682
-1 -1 0;
#X obj 11 339 hradio 15 1 1 3 empty empty empty 0 -8 0 10 -261682 -1
-1 0;
#X text 489 104 param id;
#X text 377 154 param data;
#X obj 482 122 hradio 15 1 1 6 empty empty empty 0 -8 0 10 -261682
-1 -1 0;
#X obj 400 287 list prepend;
#X obj 769 215 tgl 15 0 empty empty empty 17 7 0 10 -261682 -1 -1 0
1;
#X obj 810 215 tgl 15 0 empty empty empty 17 7 0 10 -261682 -1 -1 0
1;
#X msg 834 327 0;
#X msg 864 327 1;
#X msg 894 327 2;
#X msg 924 327 3;
#X msg 954 327 4;
#X msg 984 327 5;
#X obj 834 361 s \$0-paramId;
#X obj 482 85 r \$0-paramId;
#X obj 373 134 r \$0-paramData;
#X obj 400 309 route 0 1 2 3 4 5;
#X obj 147 418 pack f f f f f f f f f;
#X obj 856 215 tgl 15 0 empty empty empty 17 7 0 10 -261682 -1 -1 0
1;
#X obj 897 215 tgl 15 0 empty empty empty 17 7 0 10 -261682 -1 -1 0
1;
#X obj 940 215 tgl 15 0 empty empty empty 17 7 0 10 -261682 -1 -1 0
1;
#X obj 981 215 tgl 15 0 empty empty empty 17 7 0 10 -261682 -1 -1 0
1;
#X obj 727 361 s \$0-paramData;
#X obj 730 248 t f f;
#X obj 771 248 t f f;
#X obj 817 248 t f f;
#X obj 858 248 t f f;
#X obj 901 248 t f f;
#X obj 942 248 t f f;
#X text 554 492 - ocarina : param0 [1 or 0] \, param1 [1 or 0] ...
-> param5 [1 or 0];
#X text 554 532 - bolstick : param0 [0 to 1] = rugosité du son param1
[0 to 1] = pitch param 2 [0 to 1] = volume;
#X obj 718 93 bng 15 250 50 0 empty empty empty 17 7 0 10 -261682 -1
-1;
#X obj 748 93 bng 15 250 50 0 empty empty empty 17 7 0 10 -261682 -1
-1;
#X obj 780 93 bng 15 250 50 0 empty empty empty 17 7 0 10 -261682 -1
-1;
#X obj 810 93 bng 15 250 50 0 empty empty empty 17 7 0 10 -261682 -1
-1;
#X obj 843 93 bng 15 250 50 0 empty empty empty 17 7 0 10 -261682 -1
-1;
#X obj 873 93 bng 15 250 50 0 empty empty empty 17 7 0 10 -261682 -1
-1;
#X obj 1051 61 loadbang;
#X obj 756 145 delay;
#X obj 806 145 delay;
#X obj 856 145 delay;
#X obj 909 145 delay;
#X obj 962 145 delay;
#X obj 1012 145 delay;
#X obj 1092 87 bng 15 250 50 0 empty empty empty 17 7 0 10 -262144
-1 -1;
#X text 623 49 Param data &id (ocarina);
#X text 664 197 long play keyboard -->;
#X text 626 71 short play keyboard -->;
#X obj 1051 85 300;
#X text 554 462 - grelot : param0 [0 à 7];
#X text 743 462 <--- /!/ attente modif Simon car 1 à 8 maintenant
;
#X obj 513 201 hsl 60 15 0 1 0 0 empty empty empty -2 -8 0 10 -261682
-1 -1 0 1;
#X floatatom 582 202 5 0 0 0 - - -, f 5;
#X text 508 181 param data 0 -> 1;
#X connect 1 0 4 0;
#X connect 2 0 1 0;
#X connect 3 0 4 0;
#X connect 5 0 34 0;
#X connect 6 0 8 0;
#X connect 8 0 5 0;
#X connect 8 1 34 1;
#X connect 12 0 5 0;
#X connect 12 1 34 2;
#X connect 14 0 5 0;
#X connect 14 1 21 0;
#X connect 15 0 14 0;
#X connect 16 0 12 0;
#X connect 17 0 34 0;
#X connect 20 0 21 1;
#X connect 21 0 33 0;
#X connect 22 0 40 0;
#X connect 23 0 41 0;
#X connect 24 0 30 0;
#X connect 25 0 30 0;
#X connect 26 0 30 0;
#X connect 27 0 30 0;
#X connect 28 0 30 0;
#X connect 29 0 30 0;
#X connect 31 0 20 0;
#X connect 32 0 15 0;
#X connect 33 0 34 3;
#X connect 33 1 34 4;
#X connect 33 2 34 5;
#X connect 33 3 34 6;
#X connect 33 4 34 7;
#X connect 33 5 34 8;
#X connect 34 0 4 1;
#X connect 35 0 42 0;
#X connect 36 0 43 0;
#X connect 37 0 44 0;
#X connect 38 0 45 0;
#X connect 40 0 39 0;
#X connect 40 1 24 0;
#X connect 41 0 39 0;
#X connect 41 1 25 0;
#X connect 42 0 39 0;
#X connect 42 1 26 0;
#X connect 43 0 39 0;
#X connect 43 1 27 0;
#X connect 44 0 39 0;
#X connect 44 1 28 0;
#X connect 45 0 39 0;
#X connect 45 1 29 0;
#X connect 48 0 55 0;
#X connect 48 0 22 0;
#X connect 49 0 56 0;
#X connect 49 0 23 0;
#X connect 50 0 57 0;
#X connect 50 0 35 0;
#X connect 51 0 58 0;
#X connect 51 0 36 0;
#X connect 52 0 59 0;
#X connect 52 0 37 0;
#X connect 53 0 60 0;
#X connect 53 0 38 0;
#X connect 54 0 65 0;
#X connect 55 0 22 0;
#X connect 56 0 23 0;
#X connect 57 0 35 0;
#X connect 58 0 36 0;
#X connect 59 0 37 0;
#X connect 60 0 38 0;
#X connect 61 0 65 0;
#X connect 65 0 55 1;
#X connect 65 0 56 1;
#X connect 65 0 57 1;
#X connect 65 0 58 1;
#X connect 65 0 59 1;
#X connect 65 0 60 1;
#X connect 68 0 69 0;
#X connect 68 0 14 0;
