#N canvas 64 126 1493 726 10;
#X obj 57 336 pack 0 0 0, f 11;
#X obj 57 362 route 1 2 3 4 5 6 7 8, f 81;
#X obj 515 661 * 4;
#X obj 726 693 i;
#X floatatom 231 222 5 0 0 0 - - -, f 5;
#X obj 95 284 + 0;
#X text 590 635 parameters;
#X obj 726 671 * 24;
#X obj 726 715 - 12;
#X obj 94 306 - 12;
#X text 740 102 Fender Rhodes style voice using rjdj rhodey abstraction
\, which is itself based on the STK Rhodey code;
#X text 24 100 basic polyphonic patch with 8 voices and sequencer;
#X obj 218 598 *~ 0.3;
#X obj 57 260 poly 8 1, f 11;
#X obj 714 220 vsl 15 128 0 1 0 0 empty empty empty 0 -9 0 10 -262144
-1 -1 0 1;
#X obj 772 220 vsl 15 128 0 1 0 0 empty empty empty 0 -9 0 10 -262144
-1 -1 0 1;
#X obj 838 220 vsl 15 128 0 1 0 0 empty empty empty 0 -9 0 10 -262144
-1 -1 0 1;
#X obj 900 220 vsl 15 128 0 1 0 0 empty empty empty 0 -9 0 10 -262144
-1 -1 0 1;
#X obj 826 438 unpack;
#X floatatom 826 467 5 0 0 0 - - -, f 5;
#X floatatom 865 467 5 0 0 0 - - -, f 5;
#X text 829 391 keyboard;
#X text 801 166 knobs;
#X text 713 164 TESTS;
#X obj 1000 311 unpack;
#X floatatom 1000 341 5 0 0 0 - - -, f 5;
#X floatatom 1047 343 5 0 0 0 - - -, f 5;
#X obj 1000 409 pack;
#X obj 1047 370 / 1;
#X obj 1000 368 + 59;
#X text 1000 217 key number;
#X obj 1000 277 pack 1 100;
#X obj 1000 441 s \$0-notes;
#X obj 826 412 r \$0-notes;
#X obj 727 638 r \$0-knob4;
#X obj 33 181 r \$0-zero_notes;
#X obj 23 213 r \$0-notes_seq;
#X obj 126 215 r \$0-notes;
#X obj 231 200 r \$0-transpose;
#X obj 429 633 r \$0-knob1;
#X obj 515 634 r \$0-knob2;
#X obj 628 635 r \$0-knob3;
#X obj 429 663 s \$0-tone;
#X obj 515 698 s \$0-mod;
#X obj 626 716 s \$0-decay;
#X obj 726 749 s \$0-transpose;
#X msg 705 566 screenLine1 1: Tone \; screenLine2 2: Modulation \;
screenLine3 3: Decay \; screenLine4 4: Transpose \;;
#X obj 374 413 r \$0-decay;
#X obj 210 410 r \$0-tone;
#X obj 685 363 s \$0-knob1;
#X obj 755 363 s \$0-knob2;
#X obj 825 363 s \$0-knob3;
#X obj 895 363 s \$0-knob4;
#X obj 3 530 voice_rhodey;
#X obj 86 529 voice_rhodey;
#X obj 168 529 voice_rhodey;
#X obj 249 529 voice_rhodey;
#X obj 329 529 voice_rhodey;
#X obj 410 530 voice_rhodey;
#X obj 493 530 voice_rhodey;
#X obj 574 530 voice_rhodey;
#X obj 218 646 outlet~;
#X obj 685 193 r \$0-knob1;
#X obj 756 193 r \$0-knob2;
#X obj 825 193 r \$0-knob3;
#X obj 895 193 r \$0-knob4;
#X obj 26 -3 inlet;
#X obj 26 74 s \$0-notes;
#X obj 123 -3 inlet;
#X obj 123 73 s \$0-knob1;
#X floatatom 123 53 5 0 0 0 - - -, f 5;
#X obj 123 23 unpack f f f f f;
#X floatatom 203 53 5 0 0 0 - - -, f 5;
#X obj 203 73 s \$0-knob2;
#X floatatom 283 53 5 0 0 0 - - -, f 5;
#X floatatom 363 53 5 0 0 0 - - -, f 5;
#X obj 283 73 s \$0-knob3;
#X obj 363 73 s \$0-knob4;
#X floatatom 443 53 5 0 0 0 - - -, f 5;
#X obj 443 73 s \$0-aux;
#X obj 626 667 * 2000;
#X msg 1007 235 3;
#X msg 1044 235 8;
#X msg 1083 235 11;
#X msg 1117 235 14;
#X msg 1154 235 15;
#X msg 1193 235 20;
#X msg 1233 235 23;
#X connect 0 0 1 0;
#X connect 1 0 53 0;
#X connect 1 1 54 0;
#X connect 1 2 55 0;
#X connect 1 3 56 0;
#X connect 1 4 57 0;
#X connect 1 5 58 0;
#X connect 1 6 59 0;
#X connect 1 7 60 0;
#X connect 2 0 43 0;
#X connect 3 0 8 0;
#X connect 4 0 5 1;
#X connect 5 0 9 0;
#X connect 7 0 3 0;
#X connect 8 0 45 0;
#X connect 9 0 0 1;
#X connect 12 0 61 0;
#X connect 13 0 0 0;
#X connect 13 1 5 0;
#X connect 13 2 0 2;
#X connect 18 0 19 0;
#X connect 18 1 20 0;
#X connect 24 0 25 0;
#X connect 24 1 26 0;
#X connect 25 0 29 0;
#X connect 26 0 28 0;
#X connect 27 0 32 0;
#X connect 28 0 27 1;
#X connect 29 0 27 0;
#X connect 31 0 24 0;
#X connect 33 0 18 0;
#X connect 34 0 7 0;
#X connect 35 0 13 0;
#X connect 36 0 13 0;
#X connect 37 0 13 0;
#X connect 38 0 4 0;
#X connect 39 0 42 0;
#X connect 40 0 2 0;
#X connect 41 0 80 0;
#X connect 47 0 53 2;
#X connect 47 0 54 2;
#X connect 47 0 55 2;
#X connect 47 0 56 2;
#X connect 47 0 57 2;
#X connect 47 0 58 2;
#X connect 47 0 59 2;
#X connect 47 0 60 2;
#X connect 48 0 53 1;
#X connect 48 0 54 1;
#X connect 48 0 55 1;
#X connect 48 0 56 1;
#X connect 48 0 57 1;
#X connect 48 0 58 1;
#X connect 48 0 59 1;
#X connect 48 0 60 1;
#X connect 53 0 12 0;
#X connect 54 0 12 0;
#X connect 55 0 12 0;
#X connect 56 0 12 0;
#X connect 57 0 12 0;
#X connect 58 0 12 0;
#X connect 59 0 12 0;
#X connect 60 0 12 0;
#X connect 62 0 14 0;
#X connect 63 0 15 0;
#X connect 64 0 16 0;
#X connect 65 0 17 0;
#X connect 66 0 67 0;
#X connect 68 0 71 0;
#X connect 70 0 69 0;
#X connect 71 0 70 0;
#X connect 71 1 72 0;
#X connect 71 2 74 0;
#X connect 71 3 75 0;
#X connect 71 4 78 0;
#X connect 72 0 73 0;
#X connect 74 0 76 0;
#X connect 75 0 77 0;
#X connect 78 0 79 0;
#X connect 80 0 44 0;
#X connect 81 0 31 0;
#X connect 82 0 31 0;
#X connect 83 0 31 0;
#X connect 84 0 31 0;
#X connect 85 0 31 0;
#X connect 86 0 31 0;
#X connect 87 0 31 0;
