#N canvas 259 23 1007 718 10;
#X obj 44 281 spigot 0;
#X obj 382 238 tgl 15 0 empty empty empty 17 7 0 10 -262144 -1 -1 1
1;
#X obj 687 307 t b f;
#X obj 687 240 valueChanged;
#X obj 722 263 print new preset;
#X obj 43 671 outlet~;
#X obj 378 678 outlet;
#X floatatom 44 318 5 0 0 0 - - -, f 5;
#X floatatom 45 369 5 0 0 0 - - -, f 5;
#X obj 44 396 osc~;
#X obj 214 281 spigot 0;
#X obj 140 396 phasor~;
#X obj 140 443 *~;
#X obj 44 492 +~;
#X obj 52 25 inlet datas;
#X obj 134 96 s \$0-preset;
#X obj 223 96 s \$0-param1;
#X obj 52 55 unpack 0 0 0 0 0;
#X obj 314 96 s \$0-param2;
#X obj 403 96 s \$0-param3;
#X text 260 123 x;
#X text 360 123 y;
#X obj 687 219 r \$0-preset;
#X obj 51 96 s \$0-state;
#X obj 382 214 r \$0-state;
#X obj 45 213 r \$0-param2;
#X obj 43 600 *~;
#X text 291 530 volume;
#X text 198 386 texture;
#X text 89 369 pitch;
#X text 422 124 micro;
#X obj 526 281 spigot 0;
#X obj 526 216 r \$0-param3;
#X obj 214 213 r \$0-param1;
#X obj 44 341 m_scale 0 1 120 500;
#X obj 155 568 line~ \$1 100;
#X connect 0 0 7 0;
#X connect 1 0 0 1;
#X connect 1 0 6 0;
#X connect 1 0 10 1;
#X connect 1 0 31 1;
#X connect 3 0 4 0;
#X connect 3 0 2 0;
#X connect 7 0 34 0;
#X connect 8 0 9 0;
#X connect 8 0 11 0;
#X connect 9 0 13 0;
#X connect 10 0 12 1;
#X connect 11 0 12 0;
#X connect 12 0 13 1;
#X connect 13 0 26 0;
#X connect 14 0 17 0;
#X connect 17 0 23 0;
#X connect 17 1 15 0;
#X connect 17 2 16 0;
#X connect 17 3 18 0;
#X connect 17 4 19 0;
#X connect 22 0 3 0;
#X connect 24 0 1 0;
#X connect 25 0 0 0;
#X connect 26 0 5 0;
#X connect 31 0 35 0;
#X connect 32 0 31 0;
#X connect 33 0 10 0;
#X connect 34 0 8 0;
#X connect 35 0 26 1;
