#N canvas 132 23 1548 961 10;
#X text 909 163 ON;
#X text 844 163 OFF;
#X obj 888 162 bng 15 250 50 0 empty empty empty 17 7 0 10 -262144
-1 -1;
#X obj 822 163 bng 15 250 50 0 empty empty empty 17 7 0 10 -262144
-1 -1;
#X obj 1001 130 hsl 100 15 0.1 3 0 0 empty empty empty -2 -8 0 10 -262144
-1 -1 3072 1;
#X floatatom 1109 131 5 0 0 0 - - -, f 5;
#X obj 1177 131 hsl 100 15 0 1 0 0 empty empty empty -2 -8 0 10 -262144
-1 -1 0 1;
#X floatatom 1287 132 5 0 0 0 - - -, f 5;
#X text 820 19 HARDWARE CONTROLS;
#X text 48 22 INIT;
#X obj 309 36 inlet datas;
#X obj 392 131 s \$0-preset;
#X obj 481 131 s \$0-param0;
#X obj 309 131 s \$0-state;
#X obj 391 99 pipe 1;
#X obj 481 99 pipe 10;
#X obj 570 99 pipe 10;
#X obj 570 131 s \$0-param1;
#X obj 998 53 r \$0-param0;
#X obj 1174 52 r \$0-param1;
#X obj 822 51 r \$0-state;
#X obj 823 136 route 0 1;
#X obj 822 78 valueChanged;
#X obj 842 104 print new param1;
#X obj 822 189 s \$0-off;
#X obj 888 190 s \$0-on;
#X obj 659 99 pipe 10;
#X obj 659 131 s \$0-param2;
#X text 492 157 button0;
#X text 671 157 button2;
#X text 580 157 button1;
#X obj 50 48 loadbang;
#X msg 50 79 \; corail-readfile1 corail.wav \;;
#X obj 1347 131 hsl 100 15 0 1 0 0 empty empty empty -2 -8 0 10 -262144
-1 -1 5873 1;
#X floatatom 1457 132 5 0 0 0 - - -, f 5;
#X text 1009 107 LOWPASS 1 -> 0.02;
#X obj 998 78 m_scale 0 1 1 0.02;
#X obj 998 155 s \$0-lowpass;
#X text 1186 108 HIPASS;
#X obj 1175 156 s \$0-hipass;
#X text 1356 108 WHITE NOISE;
#X obj 37 585 /;
#X obj 37 687 *~ 0;
#X obj 37 661 phasor~ 0;
#X obj 37 714 +~ 1;
#X msg 37 558 44100;
#X obj 37 532 t b f;
#X obj 258 333 symbol;
#X obj 257 390 soundfiler;
#X obj 37 618 f;
#X obj 177 577 bng 15 250 50 0 empty empty empty 17 7 0 10 -262144
-1 -1;
#X text 28 245 LOAD SOUNDFILE;
#X floatatom 75 626 5 0 0 0 - - -, f 5;
#X obj 257 418 s \$0-totsamps;
#X obj 37 505 r \$0-totsamps;
#X obj 178 548 r \$0-on;
#X obj 139 615 r \$0-off;
#X obj 80 691 r \$0-totsamps;
#X obj 37 814 s~ \$0-audio;
#N canvas 0 22 450 278 (subpatch) 0;
#X array corail-array1 264600 float 4;
#X coords 0 1 264599 -1 200 140 1 0 0;
#X restore 30 300 graph;
#X obj 258 303 r corail-readfile1;
#X msg 257 362 read -resize \$1 corail-array1;
#X obj 37 753 tabread4~ corail-array1;
#X text 32 474 READ ARRAY;
#X obj 648 627 lop~ 5;
#X text 740 543 Lowpass;
#X text 720 666 Hipass;
#X obj 648 772 hip~ 5;
#X floatatom 720 744 5 0 0 0 - - -, f 5;
#X obj 720 716 * 3000;
#X floatatom 743 619 5 0 0 0 - - -, f 5;
#X text 661 573 FILTERS;
#X obj 743 591 * 6000;
#X obj 705 413 noise~;
#X obj 649 513 +~;
#X text 661 373 NOISE;
#X obj 705 481 *~;
#X obj 775 395 f;
#X obj 959 370 bng 15 250 50 0 empty empty empty 17 7 0 10 -262144
-1 -1;
#X obj 649 347 r~ \$0-audio;
#X obj 775 336 r \$0-noiseVal;
#X obj 743 565 r \$0-lowpass;
#X obj 720 688 r \$0-hipass;
#X text 645 290 SOUND EFFECTS;
#X obj 647 877 outlet~;
#X msg 915 441 0;
#X msg 139 637 0;
#X obj 1344 52 r \$0-param2;
#X obj 309 66 unpack 0 0 0 0 0 0;
#X text 773 504 reduce noise volume;
#X obj 1345 156 s \$0-noiseVal;
#X obj 775 482 * 0.05;
#X obj 915 420 bng 15 250 50 0 empty empty empty 17 7 0 10 -262144
-1 -1;
#X obj 916 398 r \$0-off;
#X obj 916 346 r \$0-on;
#X connect 2 0 25 0;
#X connect 3 0 24 0;
#X connect 4 0 5 0;
#X connect 4 0 37 0;
#X connect 6 0 7 0;
#X connect 6 0 39 0;
#X connect 10 0 88 0;
#X connect 14 0 11 0;
#X connect 15 0 12 0;
#X connect 16 0 17 0;
#X connect 18 0 36 0;
#X connect 19 0 6 0;
#X connect 20 0 22 0;
#X connect 21 0 3 0;
#X connect 21 1 2 0;
#X connect 22 0 23 0;
#X connect 22 0 21 0;
#X connect 26 0 27 0;
#X connect 31 0 32 0;
#X connect 33 0 34 0;
#X connect 33 0 90 0;
#X connect 36 0 4 0;
#X connect 41 0 49 1;
#X connect 41 0 49 0;
#X connect 42 0 44 0;
#X connect 43 0 42 0;
#X connect 44 0 62 0;
#X connect 45 0 41 0;
#X connect 46 0 45 0;
#X connect 46 1 41 1;
#X connect 47 0 61 0;
#X connect 48 0 53 0;
#X connect 49 0 43 0;
#X connect 49 0 52 0;
#X connect 50 0 49 0;
#X connect 54 0 46 0;
#X connect 55 0 50 0;
#X connect 56 0 86 0;
#X connect 57 0 42 1;
#X connect 60 0 47 0;
#X connect 61 0 48 0;
#X connect 62 0 58 0;
#X connect 64 0 67 0;
#X connect 67 0 84 0;
#X connect 68 0 67 1;
#X connect 69 0 68 0;
#X connect 70 0 64 1;
#X connect 72 0 70 0;
#X connect 73 0 76 0;
#X connect 74 0 64 0;
#X connect 76 0 74 1;
#X connect 77 0 91 0;
#X connect 79 0 74 0;
#X connect 80 0 77 0;
#X connect 80 0 77 1;
#X connect 81 0 72 0;
#X connect 82 0 69 0;
#X connect 85 0 91 0;
#X connect 86 0 43 0;
#X connect 87 0 33 0;
#X connect 88 0 13 0;
#X connect 88 1 14 0;
#X connect 88 2 15 0;
#X connect 88 3 16 0;
#X connect 88 4 26 0;
#X connect 91 0 76 1;
#X connect 92 0 85 0;
#X connect 93 0 92 0;
#X connect 94 0 78 0;
#X connect 94 0 77 0;
