#N canvas 436 23 782 813 10;
#X declare -path Chords-Roll;
#X floatatom 46 332 5 0 0 0 - - -, f 5;
#X obj 46 353 * 2;
#X obj 46 301 spigot 0;
#X obj 250 258 tgl 15 0 empty empty empty 17 7 0 10 -262144 -1 -1 1
1;
#X obj 375 326 t b f;
#X obj 375 259 valueChanged;
#X obj 46 252 valueChanged;
#X obj 410 282 print new preset;
#X obj 67 273 print new param1;
#X obj 51 21 declare -path Chords-Roll;
#X obj 46 778 ChordsRoll_main 0.5 0.5 0.5 0.5 0;
#X obj 46 819 outlet~;
#X obj 250 818 outlet;
#X obj 53 66 inlet datas;
#X obj 52 137 s \$0-state;
#X obj 250 235 r \$0-state;
#X obj 135 137 s \$0-preset;
#X obj 224 137 s \$0-param1;
#X obj 375 236 r \$0-preset;
#X obj 46 231 r \$0-param1;
#X text 237 160 facette;
#X floatatom 46 402 5 0 0 0 - - -, f 5;
#X obj 46 463 makenote 100 1000;
#X obj 48 499 pack f f;
#X obj 72 537 print makenote;
#X obj 46 375 + 80;
#X obj 53 96 unpack 0 0 0 0 0 0 0 0;
#X connect 0 0 1 0;
#X connect 1 0 25 0;
#X connect 2 0 0 0;
#X connect 3 0 2 1;
#X connect 3 0 12 0;
#X connect 5 0 7 0;
#X connect 5 0 4 0;
#X connect 6 0 8 0;
#X connect 6 0 2 0;
#X connect 10 0 11 0;
#X connect 13 0 26 0;
#X connect 15 0 3 0;
#X connect 18 0 5 0;
#X connect 19 0 6 0;
#X connect 21 0 22 0;
#X connect 22 0 23 0;
#X connect 22 1 23 1;
#X connect 23 0 10 0;
#X connect 23 0 24 0;
#X connect 25 0 21 0;
#X connect 26 0 14 0;
#X connect 26 1 16 0;
#X connect 26 2 17 0;
