#N canvas 227 49 782 875 10;
#X declare -path Chords-Roll;
#X floatatom 46 332 5 0 0 0 - - -, f 5;
#X floatatom 46 402 5 0 0 0 - - -, f 5;
#X obj 46 353 * 2;
#X obj 46 375 + 28;
#X obj 46 301 spigot 0;
#X obj 250 258 tgl 15 0 empty empty empty 17 7 0 10 -262144 -1 -1 1
1;
#X obj 46 463 makenote 100 1000;
#X obj 46 522 pack 0 f f f;
#X obj 46 551 route;
#X obj 375 326 t b f;
#X obj 375 259 valueChanged;
#X obj 46 252 valueChanged;
#X obj 410 282 print new preset;
#X obj 67 273 print new param1;
#X obj 51 21 declare -path Chords-Roll;
#X floatatom 46 674 5 0 0 0 - - -, f 5;
#X floatatom 93 675 5 0 0 0 - - -, f 5;
#X obj 46 742 pack;
#X obj 93 702 / 1;
#X obj 46 701 + 59;
#X obj 46 644 unpack f f f;
#X obj 46 766 ChordsRoll_main 0.5 0.5 0.5 0.5 0;
#X obj 46 819 outlet~;
#X obj 250 818 outlet;
#X obj 46 580 route 1 2 3 4;
#X obj 53 66 inlet datas;
#X obj 52 137 s \$0-state;
#X obj 250 235 r \$0-state;
#X obj 135 137 s \$0-preset;
#X obj 224 137 s \$0-param1;
#X obj 375 236 r \$0-preset;
#X obj 46 231 r \$0-param1;
#X obj 53 96 unpack 0 0 0 0 0;
#X text 158 579 preset;
#X text 237 160 facette;
#X connect 0 0 2 0;
#X connect 1 0 8 1;
#X connect 1 0 6 0;
#X connect 2 0 3 0;
#X connect 3 0 1 0;
#X connect 4 0 0 0;
#X connect 5 0 4 1;
#X connect 5 0 23 0;
#X connect 6 0 7 2;
#X connect 6 0 7 0;
#X connect 6 1 7 3;
#X connect 7 0 8 0;
#X connect 8 0 24 0;
#X connect 9 0 1 0;
#X connect 9 1 7 1;
#X connect 10 0 12 0;
#X connect 10 0 9 0;
#X connect 11 0 13 0;
#X connect 11 0 4 0;
#X connect 15 0 19 0;
#X connect 16 0 18 0;
#X connect 17 0 21 0;
#X connect 18 0 17 1;
#X connect 19 0 17 0;
#X connect 20 0 15 0;
#X connect 20 1 16 0;
#X connect 21 0 22 0;
#X connect 24 0 20 0;
#X connect 25 0 32 0;
#X connect 27 0 5 0;
#X connect 30 0 10 0;
#X connect 31 0 11 0;
#X connect 32 0 26 0;
#X connect 32 1 28 0;
#X connect 32 2 29 0;
