#N canvas 423 71 966 943 10;
#X obj 46 301 spigot 0;
#X obj 250 258 tgl 15 0 empty empty empty 17 7 0 10 -262144 -1 -1 0
1;
#X obj 375 259 valueChanged;
#X obj 46 252 valueChanged;
#X obj 460 292 print new preset;
#X obj 53 36 inlet datas;
#X obj 250 235 r \$0-state;
#X obj 136 131 s \$0-preset;
#X obj 375 236 r \$0-preset;
#X text 237 152 facette;
#X obj 46 534 makenote 100 1000;
#X obj 48 560 pack f f;
#X obj 67 588 print makenote;
#X obj 53 66 unpack 0 0 0 0 0 0 0 0;
#X obj 460 315 hradio 15 1 0 5 empty empty empty 0 -8 0 10 -262144
-1 -1 1;
#X obj 225 131 s \$0-param0;
#X obj 46 231 r \$0-param0;
#X obj 67 273 print new param0;
#X text 307 441 store preset number;
#X obj 275 439 i;
#X obj 48 633 list prepend;
#X floatatom 282 465 5 0 0 0 - - -, f 5;
#X obj 65 660 print list makeNoteVI;
#X obj 484 64 loadbang;
#X obj 484 89 t b b;
#X obj 484 113 0;
#X obj 516 113 1;
#X text 481 41 avoid bug on init;
#X obj 561 545 bng 15 250 50 0 empty empty empty 17 7 0 10 -262144
-1 -1;
#X obj 562 513 bng 15 250 50 0 empty empty empty 17 7 0 10 -262144
-1 -1;
#X obj 560 605 bng 15 250 50 0 empty empty empty 17 7 0 10 -262144
-1 -1;
#X obj 560 573 bng 15 250 50 0 empty empty empty 17 7 0 10 -262144
-1 -1;
#X obj 559 635 bng 15 250 50 0 empty empty empty 17 7 0 10 -262144
-1 -1;
#X obj 563 474 route 0 1 2 3 4, f 35;
#X text 568 446 select VI with preset number;
#X obj 145 337 hradio 15 1 0 7 empty empty empty 0 -8 0 10 -262144
-1 -1 2;
#X msg 46 410 62;
#X msg 86 410 67;
#X obj 46 359 route 0 1 2 3 4 5 6, f 35;
#X obj 45 387 bng 15 250 50 0 empty empty empty 17 7 0 10 -262144 -1
-1;
#X obj 85 387 bng 15 250 50 0 empty empty empty 17 7 0 10 -262144 -1
-1;
#X obj 125 387 bng 15 250 50 0 empty empty empty 17 7 0 10 -262144
-1 -1;
#X obj 165 387 bng 15 250 50 0 empty empty empty 17 7 0 10 -262144
-1 -1;
#X obj 205 387 bng 15 250 50 0 empty empty empty 17 7 0 10 -262144
-1 -1;
#X obj 245 387 bng 15 250 50 0 empty empty empty 17 7 0 10 -262144
-1 -1;
#X obj 285 387 bng 15 250 50 0 empty empty empty 17 7 0 10 -262144
-1 -1;
#X msg 126 410 70;
#X msg 206 410 74;
#X msg 246 411 79;
#X msg 166 410 73;
#X msg 284 410 82;
#X obj 46 327 - 1;
#X text 77 327 <--- /!/ a supprimer apres modif Simon;
#X obj 46 502 +;
#X msg 195 497 100;
#X msg 191 441 0;
#X msg 188 471 200;
#X msg 231 521 300;
#X obj 43 899 outlet;
#X obj 124 897 outlet;
#X obj 315 743 pack 0.5 0.5 0.5 0.5 0;
#X obj 323 767 pack 0.2 0.7 0.8 0.4 3;
#X obj 326 796 pack 1 1 1 0 0;
#X obj 496 817 pack 0.5 0.5 0.5 0.5 0;
#X msg 251 557 500;
#X obj 498 844 pack 0.5 0.2 0.2 0.3 0;
#X obj 53 131 s \$0-state;
#X obj 98 169 pipe;
#X obj 135 99 pipe 1;
#X obj 225 99 pipe 10;
#X obj 483 367 spigot 0;
#X connect 0 0 51 0;
#X connect 1 0 0 1;
#X connect 1 0 70 1;
#X connect 2 0 4 0;
#X connect 2 0 14 0;
#X connect 2 0 19 0;
#X connect 3 0 0 0;
#X connect 3 0 17 0;
#X connect 5 0 13 0;
#X connect 6 0 1 0;
#X connect 8 0 2 0;
#X connect 10 0 11 0;
#X connect 10 1 11 1;
#X connect 11 0 12 0;
#X connect 11 0 20 0;
#X connect 13 0 66 0;
#X connect 13 1 68 0;
#X connect 13 2 69 0;
#X connect 14 0 70 0;
#X connect 16 0 3 0;
#X connect 19 0 20 1;
#X connect 19 0 21 0;
#X connect 20 0 22 0;
#X connect 20 0 58 0;
#X connect 23 0 24 0;
#X connect 24 0 25 0;
#X connect 24 1 26 0;
#X connect 25 0 2 0;
#X connect 26 0 2 0;
#X connect 28 0 55 0;
#X connect 28 0 61 0;
#X connect 29 0 55 0;
#X connect 29 0 60 0;
#X connect 30 0 54 0;
#X connect 30 0 63 0;
#X connect 31 0 55 0;
#X connect 31 0 62 0;
#X connect 32 0 64 0;
#X connect 32 0 65 0;
#X connect 33 0 29 0;
#X connect 33 1 28 0;
#X connect 33 2 31 0;
#X connect 33 3 30 0;
#X connect 33 4 32 0;
#X connect 36 0 53 0;
#X connect 37 0 53 0;
#X connect 38 0 39 0;
#X connect 38 1 40 0;
#X connect 38 2 41 0;
#X connect 38 3 42 0;
#X connect 38 4 43 0;
#X connect 38 5 44 0;
#X connect 38 6 45 0;
#X connect 39 0 36 0;
#X connect 40 0 37 0;
#X connect 41 0 46 0;
#X connect 42 0 49 0;
#X connect 43 0 47 0;
#X connect 44 0 48 0;
#X connect 45 0 50 0;
#X connect 46 0 53 0;
#X connect 47 0 53 0;
#X connect 48 0 53 0;
#X connect 49 0 53 0;
#X connect 50 0 53 0;
#X connect 51 0 35 0;
#X connect 51 0 38 0;
#X connect 53 0 10 0;
#X connect 54 0 53 1;
#X connect 55 0 53 1;
#X connect 56 0 53 1;
#X connect 57 0 53 1;
#X connect 60 0 59 0;
#X connect 61 0 59 0;
#X connect 62 0 59 0;
#X connect 63 0 59 0;
#X connect 64 0 53 1;
#X connect 65 0 59 0;
#X connect 68 0 7 0;
#X connect 69 0 15 0;
#X connect 70 0 33 0;
