#N canvas 131 65 1547 961 10;
#X obj 1067 232 tgl 15 0 empty empty empty 17 7 0 10 -262144 -1 -1
0 1;
#X obj 1192 233 valueChanged;
#X obj 1227 256 print new preset;
#X obj 53 26 inlet datas;
#X obj 1067 209 r \$0-state;
#X obj 1192 210 r \$0-preset;
#X obj 53 56 unpack 0 0 0 0 0 0 0 0, f 69;
#X obj 47 213 r \$0-param1;
#X obj 46 579 pack f f;
#X obj 70 642 print ocarina;
#X msg 46 603 \$1 \$2;
#X obj 100 361 tgl 15 0 empty empty empty 17 7 0 10 -262144 -1 -1 0
1;
#X obj 47 257 valueChanged;
#X obj 68 278 print new param1;
#X obj 47 234 spigot 0;
#X obj 116 234 r \$0-state;
#X obj 197 257 valueChanged;
#X obj 197 234 spigot 0;
#X obj 257 234 r \$0-state;
#X obj 197 213 r \$0-param2;
#X obj 218 278 print new param2;
#X obj 356 257 valueChanged;
#X obj 356 234 spigot 0;
#X obj 416 234 r \$0-state;
#X obj 356 213 r \$0-param3;
#X obj 377 278 print new param3;
#X obj 507 257 valueChanged;
#X obj 507 234 spigot 0;
#X obj 567 234 r \$0-state;
#X obj 657 257 valueChanged;
#X obj 657 234 spigot 0;
#X obj 717 234 r \$0-state;
#X obj 816 257 valueChanged;
#X obj 816 234 spigot 0;
#X obj 876 234 r \$0-state;
#X obj 507 213 r \$0-param4;
#X obj 528 278 print new param4;
#X obj 657 213 r \$0-param5;
#X obj 678 278 print new param5;
#X obj 816 213 r \$0-param6;
#X obj 837 278 print new param6;
#X msg 47 327 62;
#X msg 197 327 67;
#X msg 356 327 70;
#X msg 507 327 73;
#X msg 657 327 74;
#X msg 816 327 79;
#X obj 1230 92 loadbang;
#X obj 1230 117 t b b;
#X obj 1230 141 0;
#X obj 1262 141 1;
#X text 1227 69 avoid bug on init;
#X obj 1227 283 hradio 15 1 0 5 empty empty empty 0 -8 0 10 -262144
-1 -1 1;
#X text 697 547 store preset number;
#X obj 665 545 i;
#X obj 438 672 list prepend;
#X floatatom 672 571 5 0 0 0 - - -, f 5;
#X obj 455 699 print list makeNoteVI;
#X obj 1258 513 bng 15 250 50 0 empty empty empty 17 7 0 10 -262144
-1 -1;
#X obj 1259 481 bng 15 250 50 0 empty empty empty 17 7 0 10 -262144
-1 -1;
#X obj 1257 573 bng 15 250 50 0 empty empty empty 17 7 0 10 -262144
-1 -1;
#X obj 1259 545 bng 15 250 50 0 empty empty empty 17 7 0 10 -262144
-1 -1;
#X obj 1256 603 bng 15 250 50 0 empty empty empty 17 7 0 10 -262144
-1 -1;
#X obj 1260 442 route 0 1 2 3 4, f 35;
#X text 1265 414 select VI with preset number;
#X obj 47 301 t f b, f 8;
#X obj 197 301 t f b, f 8;
#X obj 356 301 t f b, f 8;
#X obj 507 301 t f b, f 8;
#X obj 657 301 t f b, f 8;
#X obj 816 301 t f b, f 8;
#X obj 250 361 tgl 15 0 empty empty empty 17 7 0 10 -262144 -1 -1 0
1;
#X obj 409 361 tgl 15 0 empty empty empty 17 7 0 10 -262144 -1 -1 0
1;
#X obj 561 361 tgl 15 0 empty empty empty 17 7 0 10 -262144 -1 -1 0
1;
#X obj 710 361 tgl 15 0 empty empty empty 17 7 0 10 -262144 -1 -1 0
1;
#X obj 869 361 tgl 15 0 empty empty empty 17 7 0 10 -262144 -1 -1 0
1;
#X text 108 621 (makenote equiv : 82 150 / 82 0);
#X obj 100 383 * 100;
#X text 108 604 0 or 1 *150 for the velocity (note on / note off);
#X obj 250 383 * 100;
#X obj 410 383 * 100;
#X obj 560 383 * 100;
#X obj 710 383 * 100;
#X obj 860 383 * 100;
#X obj 703 908 pack 0.5 0.5 0.5 0.5 0;
#X obj 703 828 pack 0.3 0.9 0.5 0.5 0;
#X obj 423 960 outlet;
#X obj 504 958 outlet;
#X obj 832 485 +;
#X msg 981 480 100;
#X msg 956 429 0;
#X msg 974 454 200;
#X msg 1017 504 300;
#X obj 703 803 pack 0.8 1 0.6 0.6 0;
#X msg 1017 537 400;
#X obj 703 855 pack 0.7 0.3 0.3 0.3 0;
#X msg 1017 567 600;
#X obj 700 882 pack 0.5 0.2 0.3 0.3 0;
#X obj 53 121 s \$0-state;
#X obj 136 121 s \$0-preset;
#X obj 225 121 s \$0-param1;
#X obj 314 121 s \$0-param2;
#X obj 404 121 s \$0-param3;
#X obj 493 121 s \$0-param4;
#X obj 583 121 s \$0-param5;
#X obj 672 121 s \$0-param6;
#X text 134 149 preset;
#X text 51 149 state;
#X text 224 149 cratere 1;
#X text 313 149 cratere 2;
#X text 403 149 cratere 3;
#X text 492 149 cratere 4;
#X text 573 149 cratere 5;
#X text 662 148 cratere 6;
#X obj 52 86 pipe 0;
#X obj 135 86 pipe 2;
#X obj 224 86 pipe 10;
#X obj 313 86 pipe 10;
#X obj 403 86 pipe 10;
#X obj 492 86 pipe 10;
#X obj 582 86 pipe 10;
#X obj 671 86 pipe 10;
#X obj 1202 346 spigot 0;
#X connect 0 0 122 1;
#X connect 1 0 2 0;
#X connect 1 0 52 0;
#X connect 1 0 54 0;
#X connect 3 0 6 0;
#X connect 4 0 0 0;
#X connect 5 0 1 0;
#X connect 6 0 114 0;
#X connect 6 1 115 0;
#X connect 6 2 116 0;
#X connect 6 3 117 0;
#X connect 6 4 118 0;
#X connect 6 5 119 0;
#X connect 6 6 120 0;
#X connect 6 7 121 0;
#X connect 7 0 14 0;
#X connect 8 0 10 0;
#X connect 10 0 9 0;
#X connect 10 0 55 0;
#X connect 11 0 77 0;
#X connect 12 0 13 0;
#X connect 12 0 65 0;
#X connect 14 0 12 0;
#X connect 15 0 14 1;
#X connect 16 0 20 0;
#X connect 16 0 66 0;
#X connect 17 0 16 0;
#X connect 18 0 17 1;
#X connect 19 0 17 0;
#X connect 21 0 25 0;
#X connect 21 0 67 0;
#X connect 22 0 21 0;
#X connect 23 0 22 1;
#X connect 24 0 22 0;
#X connect 26 0 36 0;
#X connect 26 0 68 0;
#X connect 27 0 26 0;
#X connect 28 0 27 1;
#X connect 29 0 38 0;
#X connect 29 0 69 0;
#X connect 30 0 29 0;
#X connect 31 0 30 1;
#X connect 32 0 40 0;
#X connect 32 0 70 0;
#X connect 33 0 32 0;
#X connect 34 0 33 1;
#X connect 35 0 27 0;
#X connect 37 0 30 0;
#X connect 39 0 33 0;
#X connect 41 0 88 0;
#X connect 42 0 88 0;
#X connect 43 0 88 0;
#X connect 44 0 88 0;
#X connect 45 0 88 0;
#X connect 46 0 88 0;
#X connect 47 0 48 0;
#X connect 48 0 49 0;
#X connect 48 1 50 0;
#X connect 49 0 1 0;
#X connect 50 0 1 0;
#X connect 52 0 122 0;
#X connect 54 0 55 1;
#X connect 54 0 56 0;
#X connect 55 0 57 0;
#X connect 55 0 86 0;
#X connect 58 0 85 0;
#X connect 58 0 92 0;
#X connect 59 0 90 0;
#X connect 59 0 93 0;
#X connect 60 0 96 0;
#X connect 60 0 97 0;
#X connect 61 0 94 0;
#X connect 61 0 95 0;
#X connect 62 0 84 0;
#X connect 62 0 89 0;
#X connect 63 0 59 0;
#X connect 63 1 58 0;
#X connect 63 2 61 0;
#X connect 63 3 60 0;
#X connect 63 4 62 0;
#X connect 65 0 41 0;
#X connect 65 1 11 0;
#X connect 66 0 42 0;
#X connect 66 1 71 0;
#X connect 67 0 43 0;
#X connect 67 1 72 0;
#X connect 68 0 44 0;
#X connect 68 1 73 0;
#X connect 69 0 45 0;
#X connect 69 1 74 0;
#X connect 70 0 46 0;
#X connect 70 1 75 0;
#X connect 71 0 79 0;
#X connect 72 0 80 0;
#X connect 73 0 81 0;
#X connect 74 0 82 0;
#X connect 75 0 83 0;
#X connect 77 0 8 1;
#X connect 79 0 8 1;
#X connect 80 0 8 1;
#X connect 81 0 8 1;
#X connect 82 0 8 1;
#X connect 83 0 8 1;
#X connect 84 0 87 0;
#X connect 85 0 87 0;
#X connect 88 0 8 0;
#X connect 89 0 88 1;
#X connect 90 0 88 1;
#X connect 91 0 88 1;
#X connect 92 0 88 1;
#X connect 93 0 87 0;
#X connect 94 0 88 1;
#X connect 95 0 87 0;
#X connect 96 0 88 1;
#X connect 97 0 87 0;
#X connect 114 0 98 0;
#X connect 115 0 99 0;
#X connect 116 0 100 0;
#X connect 117 0 101 0;
#X connect 118 0 102 0;
#X connect 119 0 103 0;
#X connect 120 0 104 0;
#X connect 121 0 105 0;
#X connect 122 0 63 0;
