#N canvas 125 148 1128 688 10;
#X obj 57 336 pack 0 0 0, f 11;
#X obj 57 362 route 1 2 3 4 5 6 7 8, f 81;
#X obj 626 689 + 5;
#X obj 515 661 * 4;
#X obj 726 693 i;
#X floatatom 231 222 5 0 0 0 - - -, f 5;
#X obj 95 284 + 0;
#X text 590 635 parameters;
#X obj 726 671 * 24;
#X obj 726 715 - 12;
#X obj 94 306 - 12;
#X text 740 102 Fender Rhodes style voice using rjdj rhodey abstraction
\, which is itself based on the STK Rhodey code;
#X text 24 100 basic polyphonic patch with 8 voices and sequencer;
#X obj 218 598 *~ 0.3;
#X obj 57 260 poly 8 1, f 11;
#X obj 714 220 vsl 15 128 0 1 0 0 empty empty empty 0 -9 0 10 -262144
-1 -1 0 1;
#X obj 772 220 vsl 15 128 0 1 0 0 empty empty empty 0 -9 0 10 -262144
-1 -1 0 1;
#X obj 838 220 vsl 15 128 0 1 0 0 empty empty empty 0 -9 0 10 -262144
-1 -1 0 1;
#X obj 900 220 vsl 15 128 0 1 0 0 empty empty empty 0 -9 0 10 -262144
-1 -1 0 1;
#X obj 826 438 unpack;
#X floatatom 826 467 5 0 0 0 - - -, f 5;
#X floatatom 865 467 5 0 0 0 - - -, f 5;
#X text 829 391 keyboard;
#X text 801 166 knobs;
#X text 713 164 TESTS;
#X obj 1000 311 unpack;
#X floatatom 1000 341 5 0 0 0 - - -, f 5;
#X floatatom 1047 343 5 0 0 0 - - -, f 5;
#X obj 1000 409 pack;
#X obj 1047 370 / 1;
#X obj 1000 368 + 59;
#X text 1000 217 key number;
#X msg 1007 235 13;
#X msg 1044 235 14;
#X msg 1083 235 15;
#X obj 1000 277 pack 1 100;
#X obj 1000 441 s \$0-notes;
#X obj 826 412 r \$0-notes;
#X obj 727 638 r \$0-knob4;
#X obj 33 181 r \$0-zero_notes;
#X obj 23 213 r \$0-notes_seq;
#X obj 126 215 r \$0-notes;
#X obj 231 200 r \$0-transpose;
#X obj 429 633 r \$0-knob1;
#X obj 515 634 r \$0-knob2;
#X obj 628 635 r \$0-knob3;
#X obj 429 663 s \$0-tone;
#X obj 515 698 s \$0-mod;
#X obj 626 716 s \$0-decay;
#X obj 726 749 s \$0-transpose;
#X msg 705 566 screenLine1 1: Tone \; screenLine2 2: Modulation \;
screenLine3 3: Decay \; screenLine4 4: Transpose \;;
#X obj 374 413 r \$0-decay;
#X obj 210 410 r \$0-tone;
#X obj 685 363 s \$0-knob1;
#X obj 755 363 s \$0-knob2;
#X obj 825 363 s \$0-knob3;
#X obj 895 363 s \$0-knob4;
#X obj 27 123 inlet;
#X obj 27 150 s \$0-notes;
#X obj 242 147 bng 15 250 50 0 empty empty empty 17 7 0 10 -262144
-1 -1;
#X obj 3 530 voice_rhodey;
#X obj 86 529 voice_rhodey;
#X obj 168 529 voice_rhodey;
#X obj 249 529 voice_rhodey;
#X obj 329 529 voice_rhodey;
#X obj 410 530 voice_rhodey;
#X obj 493 530 voice_rhodey;
#X obj 574 530 voice_rhodey;
#X obj 218 646 outlet~;
#X obj 26 48 inlet;
#X obj 209 48 inlet;
#X obj 342 48 inlet;
#X obj 467 48 inlet;
#X obj 141 6 loadbang;
#X obj 100 48 inlet;
#X obj 141 48 \$1;
#X obj 249 48 \$2;
#X obj 381 48 \$3;
#X obj 507 48 \$4;
#X obj 26 75 s \$0-notes;
#X obj 209 75 s \$0-knob2;
#X obj 100 75 s \$0-knob1;
#X obj 342 75 s \$0-knob3;
#X obj 467 75 s \$0-knob4;
#X obj 685 193 r \$0-knob1;
#X obj 756 193 r \$0-knob2;
#X obj 825 193 r \$0-knob3;
#X obj 895 193 r \$0-knob4;
#X obj 577 48 inlet;
#X obj 617 48 \$5;
#X obj 577 75 s \$0-aux;
#X obj 626 667 * 100000;
#X connect 0 0 1 0;
#X connect 1 0 60 0;
#X connect 1 1 61 0;
#X connect 1 2 62 0;
#X connect 1 3 63 0;
#X connect 1 4 64 0;
#X connect 1 5 65 0;
#X connect 1 6 66 0;
#X connect 1 7 67 0;
#X connect 2 0 48 0;
#X connect 3 0 47 0;
#X connect 4 0 9 0;
#X connect 5 0 6 1;
#X connect 6 0 10 0;
#X connect 8 0 4 0;
#X connect 9 0 49 0;
#X connect 10 0 0 1;
#X connect 13 0 68 0;
#X connect 14 0 0 0;
#X connect 14 1 6 0;
#X connect 14 2 0 2;
#X connect 19 0 20 0;
#X connect 19 1 21 0;
#X connect 25 0 26 0;
#X connect 25 1 27 0;
#X connect 26 0 30 0;
#X connect 27 0 29 0;
#X connect 28 0 36 0;
#X connect 29 0 28 1;
#X connect 30 0 28 0;
#X connect 32 0 35 0;
#X connect 33 0 35 0;
#X connect 34 0 35 0;
#X connect 35 0 25 0;
#X connect 37 0 19 0;
#X connect 38 0 8 0;
#X connect 39 0 14 0;
#X connect 40 0 14 0;
#X connect 41 0 14 0;
#X connect 42 0 5 0;
#X connect 43 0 46 0;
#X connect 44 0 3 0;
#X connect 45 0 91 0;
#X connect 51 0 60 2;
#X connect 51 0 61 2;
#X connect 51 0 62 2;
#X connect 51 0 63 2;
#X connect 51 0 64 2;
#X connect 51 0 65 2;
#X connect 51 0 66 2;
#X connect 51 0 67 2;
#X connect 52 0 60 1;
#X connect 52 0 61 1;
#X connect 52 0 62 1;
#X connect 52 0 63 1;
#X connect 52 0 64 1;
#X connect 52 0 65 1;
#X connect 52 0 66 1;
#X connect 52 0 67 1;
#X connect 57 0 58 0;
#X connect 57 0 59 0;
#X connect 60 0 13 0;
#X connect 61 0 13 0;
#X connect 62 0 13 0;
#X connect 63 0 13 0;
#X connect 64 0 13 0;
#X connect 65 0 13 0;
#X connect 66 0 13 0;
#X connect 67 0 13 0;
#X connect 69 0 79 0;
#X connect 70 0 80 0;
#X connect 71 0 82 0;
#X connect 72 0 83 0;
#X connect 73 0 75 0;
#X connect 73 0 76 0;
#X connect 73 0 77 0;
#X connect 73 0 78 0;
#X connect 73 0 89 0;
#X connect 74 0 81 0;
#X connect 75 0 81 0;
#X connect 76 0 80 0;
#X connect 77 0 82 0;
#X connect 78 0 83 0;
#X connect 84 0 15 0;
#X connect 85 0 16 0;
#X connect 86 0 17 0;
#X connect 87 0 18 0;
#X connect 88 0 90 0;
#X connect 89 0 90 0;
#X connect 91 0 2 0;
