#N canvas 475 116 1181 904 10;
#X declare -path abs;
#X declare -path abs/Lo-Fi-Piano;
#X declare -path abs/Chords-Roll;
#X obj 657 113 s maxVolume;
#X text 632 49 CONFIG SOUND DEVICES VOLUME;
#N canvas 0 50 257 177 SDmaxVol 0;
#X obj 29 100 /;
#X msg 29 80 1;
#X floatatom 80 123 5 0 0 0 - - -, f 5;
#X text 27 13 CONFIG SOUND DEVICES VOLUME;
#X text 68 41 number of devices;
#X obj 29 123 outlet;
#X obj 29 40 inlet;
#X obj 29 60 t b f;
#X connect 0 0 2 0;
#X connect 0 0 5 0;
#X connect 1 0 0 0;
#X connect 6 0 7 0;
#X connect 7 0 1 0;
#X connect 7 1 0 1;
#X restore 657 93 pd SDmaxVol;
#X floatatom 745 114 5 0 0 0 - - -, f 5;
#X obj 571 24 loadbang;
#X obj 502 787 *~ 0.9;
#X obj 503 820 dac~;
#X obj 24 884 declare -path abs;
#X obj 38 167 r objectId;
#X obj 38 223 route 0 1 2 3;
#N canvas 308 222 635 295 receiveGameEngine2 0;
#X obj 29 69 oscparse;
#X msg 29 19 listen 9002;
#X obj 29 44 netreceive -u -b 9002;
#X obj 52 195 outlet;
#X text 229 96 objectId, f 9;
#X text 297 96 state, f 9;
#X text 366 96 preset, f 9;
#X obj 78 149 outlet;
#X obj 29 96 unpack s 0 0 0 0 0 0 0 0 0;
#X obj 78 126 pack 0 0 0 0 0 0 0 0;
#X text 436 96 param1-2-3-4-5-6;
#X connect 0 0 8 0;
#X connect 1 0 2 0;
#X connect 2 0 0 0;
#X connect 8 1 3 0;
#X connect 8 2 9 0;
#X connect 8 3 9 1;
#X connect 8 4 9 2;
#X connect 8 5 9 3;
#X connect 8 6 9 4;
#X connect 8 7 9 5;
#X connect 8 8 9 6;
#X connect 8 9 9 7;
#X connect 9 0 7 0;
#X restore 35 26 pd receiveGameEngine2;
#X obj 48 58 print objectId;
#X obj 179 80 s datas;
#X obj 126 163 r datas;
#X obj 35 82 s objectId;
#X obj 38 192 list append l;
#X obj 687 258 bng 15 250 50 0 empty empty empty 17 7 0 10 -262144
-1 -1;
#X obj 54 269 bng 15 250 50 0 empty empty empty 17 7 0 10 -262144 -1
-1;
#X obj 192 55 print datas (state preset param1-2-3-4-5-6;
#X obj 400 264 bng 15 250 50 0 empty empty empty 17 7 0 10 -262144
-1 -1;
#X msg 530 90 \; pd dsp 1;
#X msg 636 66 3;
#X obj 24 907 declare -path abs/Lo-Fi-Piano;
#X obj 38 298 SD-grelot6;
#X obj 384 293 SD-ocarina4;
#X obj 675 284 SD-bolstick4;
#X obj 342 560 ChordsRoll_main2;
#X obj 24 930 declare -path abs/Chords-Roll;
#X obj 30 385 route 0 1 2 3 4, f 35;
#X obj 310 385 route 0 1 2 3 4, f 35;
#X obj 25 578 Lo-Fi-Piano_main;
#X connect 2 0 3 0;
#X connect 2 0 0 0;
#X connect 4 0 20 0;
#X connect 4 0 21 0;
#X connect 5 0 6 0;
#X connect 5 0 6 1;
#X connect 8 0 15 0;
#X connect 9 0 17 0;
#X connect 9 0 23 0;
#X connect 9 1 19 0;
#X connect 9 1 24 0;
#X connect 9 2 16 0;
#X connect 9 2 25 0;
#X connect 10 0 14 0;
#X connect 10 1 12 0;
#X connect 10 1 18 0;
#X connect 13 0 15 1;
#X connect 15 0 9 0;
#X connect 21 0 2 0;
#X connect 23 0 28 0;
#X connect 23 1 26 1;
#X connect 23 1 30 1;
#X connect 24 0 29 0;
#X connect 24 1 26 1;
#X connect 24 1 30 1;
#X connect 25 0 5 0;
#X connect 26 0 5 0;
#X connect 28 0 26 0;
#X connect 28 1 26 0;
#X connect 28 2 26 0;
#X connect 28 3 30 0;
#X connect 28 4 30 0;
#X connect 29 0 30 0;
#X connect 29 1 30 0;
#X connect 29 2 30 0;
#X connect 29 3 30 0;
#X connect 29 4 30 0;
#X connect 30 0 5 0;
