#N canvas 506 182 1133 797 10;
#X declare -path abs;
#X declare -path abs/Chords-Roll;
#X declare -path abs/grelot_sounds;
#X declare -path abs/ocarina_sounds;
#X declare -path abs/corail_sounds;
#X declare -path abs/bolstick_sounds;
#X obj 146 133 s maxVolume;
#X text 121 69 CONFIG SOUND DEVICES VOLUME;
#N canvas 0 50 257 177 SDmaxVol 0;
#X obj 29 100 /;
#X msg 29 80 1;
#X floatatom 80 123 5 0 0 0 - - -, f 5;
#X text 27 13 CONFIG SOUND DEVICES VOLUME;
#X text 68 41 number of devices;
#X obj 29 123 outlet;
#X obj 29 40 inlet;
#X obj 29 60 t b f;
#X connect 0 0 2 0;
#X connect 0 0 5 0;
#X connect 1 0 0 0;
#X connect 6 0 7 0;
#X connect 7 0 1 0;
#X connect 7 1 0 1;
#X restore 146 113 pd SDmaxVol;
#X floatatom 234 134 5 0 0 0 - - -, f 5;
#X obj 39 44 loadbang;
#X obj 336 534 *~ 0.9;
#X obj 33 650 declare -path abs;
#X obj 40 218 r objectId;
#X obj 40 276 route 0 1 2 3;
#N canvas 797 87 744 725 receiveGameEngine2 0;
#X obj 29 69 oscparse;
#X msg 29 19 listen 9002;
#X obj 29 44 netreceive -u -b 9002;
#X obj 403 364 f;
#X obj 436 364 f;
#X obj 466 364 f;
#X obj 496 364 f;
#X obj 526 364 f;
#X obj 556 364 f;
#X obj 586 364 f;
#X obj 616 364 f;
#X obj 93 521 f;
#X obj 489 245 r packDatas;
#X obj 89 369 s packDatas;
#X obj 29 345 t b b;
#X obj 29 369 s idObj;
#X obj 42 492 r idObj;
#X obj 93 593 outlet;
#X obj 492 597 outlet;
#X obj 186 291 bng 15 250 50 0 empty empty empty 17 7 0 10 -262144
-1 -1;
#X obj 43 97 bng 15 250 50 0 empty empty empty 17 7 0 10 -262144 -1
-1;
#X obj 29 216 unpack s f f f f f f f f f;
#X obj 491 446 pack f f f f f f f f;
#X text 228 217 OSCaddress | objectId | state | preset | param1-2-3-4-5-6
;
#X obj 54 417 bng 15 250 50 0 empty empty empty 17 7 0 10 -262144 -1
-1;
#X obj 156 408 bng 15 250 50 0 empty empty empty 17 7 0 10 -262144
-1 -1;
#X obj 489 269 t b b b b b b b b;
#X connect 0 0 20 0;
#X connect 0 0 21 0;
#X connect 1 0 2 0;
#X connect 2 0 0 0;
#X connect 3 0 22 0;
#X connect 4 0 22 1;
#X connect 5 0 22 2;
#X connect 6 0 22 3;
#X connect 7 0 22 4;
#X connect 8 0 22 5;
#X connect 9 0 22 6;
#X connect 10 0 22 7;
#X connect 11 0 17 0;
#X connect 12 0 26 0;
#X connect 14 0 15 0;
#X connect 14 0 24 0;
#X connect 14 1 13 0;
#X connect 14 1 25 0;
#X connect 16 0 11 0;
#X connect 21 1 11 1;
#X connect 21 1 14 0;
#X connect 21 2 3 1;
#X connect 21 2 19 0;
#X connect 21 3 4 1;
#X connect 21 4 5 1;
#X connect 21 5 6 1;
#X connect 21 6 7 1;
#X connect 21 7 8 1;
#X connect 21 8 9 1;
#X connect 21 9 10 1;
#X connect 22 0 18 0;
#X connect 26 0 3 0;
#X connect 26 1 4 0;
#X connect 26 2 5 0;
#X connect 26 3 6 0;
#X connect 26 4 7 0;
#X connect 26 5 8 0;
#X connect 26 6 9 0;
#X connect 26 7 10 0;
#X restore 389 56 pd receiveGameEngine2;
#X obj 402 88 print objectId;
#X obj 533 110 s datas;
#X obj 128 219 r datas;
#X obj 389 112 s objectId;
#X obj 40 245 list append l;
#X obj 319 341 bng 15 250 50 0 empty empty empty 17 7 0 10 -262144
-1 -1;
#X obj 56 322 bng 15 250 50 0 empty empty empty 17 7 0 10 -262144 -1
-1;
#X obj 546 85 print datas (state preset param1-2-3-4-5-6;
#X obj 190 355 bng 15 250 50 0 empty empty empty 17 7 0 10 -262144
-1 -1;
#X msg 39 110 \; pd dsp 1;
#X obj 33 672 declare -path abs/Chords-Roll;
#X obj 335 587 dac~;
#X obj 40 351 SD-grelotv2;
#N canvas 589 322 1068 859 instructionsPlayer 0;
#X obj 543 64 loadbang;
#X msg 567 166 disconnect;
#N canvas 679 292 759 591 Rpi_sendOSC 0;
#X obj 33 252 netsend -u -b;
#X obj 63 189 list prepend send;
#X obj 63 214 list trim;
#X text 138 253 send as UDP;
#X obj 35 70 inlet;
#X obj 64 98 inlet;
#X obj 12 113 bng 15 250 50 0 empty empty empty 17 7 0 10 -262144 -1
-1;
#X text 31 44 SOUNDDEVICE0;
#X obj 64 141 oscformat callback;
#X msg 214 84 symbol test;
#X connect 1 0 2 0;
#X connect 2 0 0 0;
#X connect 4 0 0 0;
#X connect 4 0 6 0;
#X connect 5 0 8 0;
#X connect 8 0 1 0;
#X connect 9 0 8 0;
#X restore 544 250 pd Rpi_sendOSC;
#X obj 31 55 loadbang;
#X obj 29 148 oscparse;
#X obj 44 187 bng 15 250 50 0 empty empty empty 17 7 0 10 -262144 -1
-1;
#X msg 29 98 listen 9003;
#X obj 29 123 netreceive -u -b 9003;
#X obj 29 216 unpack s s s;
#X obj 96 178 print OSCparse;
#X text 128 217 OSCaddress | fileURL | callbackFunction;
#X obj 67 257 s fileURL;
#X obj 95 662 dac~;
#X text 30 25 RECEIVE OSC INSTRUCTIONS;
#X text 542 34 SEND OSC CALLBACK;
#X text 83 339 PLAYER;
#X obj 87 390 r fileURL;
#X obj 87 550 readsf~;
#X obj 194 581 symbol;
#X obj 233 555 r callbackFunction;
#X obj 99 427 bng 15 250 50 0 empty empty empty 17 7 0 10 -262144 -1
-1;
#X obj 149 585 bng 15 250 50 0 empty empty empty 17 7 0 10 -262144
-1 -1;
#X msg 260 451 start;
#X msg 87 465 open \$1;
#X obj 143 426 print fileURL;
#X obj 147 257 s callbackFunction;
#X obj 260 425 pipe 5;
#X obj 226 607 print callback \$2;
#X obj 193 635 s OSCcallback;
#X obj 639 217 r OSCcallback;
#X msg 542 132 connect 192.168.4.1 9001;
#X connect 0 0 30 0;
#X connect 1 0 2 0;
#X connect 3 0 6 0;
#X connect 4 0 5 0;
#X connect 4 0 8 0;
#X connect 4 0 9 0;
#X connect 6 0 7 0;
#X connect 7 0 4 0;
#X connect 8 1 11 0;
#X connect 8 2 25 0;
#X connect 16 0 20 0;
#X connect 16 0 24 0;
#X connect 16 0 26 0;
#X connect 16 0 23 0;
#X connect 17 0 12 0;
#X connect 17 0 12 1;
#X connect 17 1 21 0;
#X connect 17 1 18 0;
#X connect 18 0 27 0;
#X connect 18 0 28 0;
#X connect 19 0 18 1;
#X connect 22 0 17 0;
#X connect 23 0 17 0;
#X connect 26 0 22 0;
#X connect 29 0 2 1;
#X connect 30 0 2 0;
#X restore 887 49 pd instructionsPlayer;
#X obj 33 694 declare -path abs/grelot_sounds;
#X obj 176 386 SD-ocarinav2;
#X obj 33 716 declare -path abs/ocarina_sounds;
#X obj 430 301 bng 15 250 50 0 empty empty empty 17 7 0 10 -262144
-1 -1;
#X obj 418 327 SD-corailv2;
#X msg 125 86 4;
#X text 41 19 INIT;
#X text 385 24 RECEIVE OSC DATAS CONTROLLERS;
#X text 883 20 INSTRUCTIONS PLAYER;
#X text 37 190 AUDIO ENGINE;
#X obj 307 367 SD-bolstickv2;
#X obj 33 762 declare -path abs/corail_sounds;
#X obj 33 738 declare -path abs/bolstick_sounds;
#X connect 2 0 3 0;
#X connect 2 0 0 0;
#X connect 4 0 19 0;
#X connect 4 0 29 0;
#X connect 5 0 21 0;
#X connect 5 0 21 1;
#X connect 7 0 14 0;
#X connect 8 0 16 0;
#X connect 8 0 22 0;
#X connect 8 1 18 0;
#X connect 8 1 25 0;
#X connect 8 2 15 0;
#X connect 8 2 34 0;
#X connect 8 3 28 0;
#X connect 8 3 27 0;
#X connect 9 0 10 0;
#X connect 9 0 13 0;
#X connect 9 1 17 0;
#X connect 9 1 11 0;
#X connect 12 0 14 1;
#X connect 14 0 8 0;
#X connect 22 0 5 0;
#X connect 25 0 5 0;
#X connect 28 0 5 0;
#X connect 29 0 2 0;
#X connect 34 0 5 0;
