#N canvas 704 134 893 705 10;
#X declare -path abs;
#X declare -path abs/Rhodey;
#X declare -path abs/Rhodey/rj;
#X declare -path abs/Chords-Roll;
#X obj 657 113 s maxVolume;
#X text 632 49 CONFIG SOUND DEVICES VOLUME;
#N canvas 0 23 257 177 SDmaxVol 0;
#X obj 29 100 /;
#X msg 29 80 1;
#X floatatom 80 123 5 0 0 0 - - -, f 5;
#X text 27 13 CONFIG SOUND DEVICES VOLUME;
#X text 68 41 number of devices;
#X obj 29 123 outlet;
#X obj 29 40 inlet;
#X obj 29 60 t b f;
#X connect 0 0 2 0;
#X connect 0 0 5 0;
#X connect 1 0 0 0;
#X connect 6 0 7 0;
#X connect 7 0 1 0;
#X connect 7 1 0 1;
#X restore 657 93 pd SDmaxVol;
#X msg 636 66 4;
#X floatatom 745 114 5 0 0 0 - - -, f 5;
#X obj 574 25 loadbang;
#X obj 430 475 *~ 0.9;
#X obj 431 508 dac~;
#X obj 105 359 line~;
#X obj 123 316 r maxVolume;
#X obj 38 396 *~;
#X obj 105 337 *;
#X obj 36 584 declare -path abs;
#X obj 36 627 declare -path abs/Rhodey;
#X obj 36 648 declare -path abs/Rhodey/rj;
#X obj 36 605 declare -path abs/Chords-Roll;
#X obj 38 167 r objectId;
#X obj 38 223 route 0 1 2 3;
#N canvas 708 325 800 444 receiveGameEngine2 0;
#X obj 29 69 oscparse;
#X msg 29 19 listen 9002;
#X obj 29 44 netreceive -u -b 9002;
#X obj 52 195 outlet;
#X text 189 96 objectId, f 9;
#X text 267 96 state, f 9;
#X text 314 96 preset, f 9;
#X text 371 96 param1, f 9;
#X text 433 96 param2, f 9;
#X obj 78 149 outlet;
#X obj 29 96 unpack s 0 0 0 0 0 0;
#X text 494 96 param3, f 9;
#X obj 78 126 pack 0 0 0 0 0;
#X connect 0 0 10 0;
#X connect 1 0 2 0;
#X connect 2 0 0 0;
#X connect 10 1 3 0;
#X connect 10 2 12 0;
#X connect 10 3 12 1;
#X connect 10 4 12 2;
#X connect 10 5 12 3;
#X connect 10 6 12 4;
#X connect 12 0 9 0;
#X restore 35 26 pd receiveGameEngine2;
#X obj 48 58 print objectId;
#X obj 179 80 s datas;
#X obj 126 163 r datas;
#X obj 35 82 s objectId;
#X obj 38 192 list append l;
#X obj 192 55 print datas (state preset param1 param2 param3);
#X obj 349 359 line~;
#X obj 367 316 r maxVolume;
#X obj 268 396 *~;
#X obj 349 337 *;
#X obj 280 272 bng 15 250 50 0 empty empty empty 17 7 0 10 -262144
-1 -1;
#X obj 54 269 bng 15 250 50 0 empty empty empty 17 7 0 10 -262144 -1
-1;
#X obj 268 298 SD-bolstick2;
#X obj 38 298 SD-grelot3;
#X connect 2 0 4 0;
#X connect 2 0 0 0;
#X connect 3 0 2 0;
#X connect 5 0 3 0;
#X connect 6 0 7 0;
#X connect 6 0 7 1;
#X connect 8 0 10 1;
#X connect 9 0 11 1;
#X connect 10 0 6 0;
#X connect 11 0 8 0;
#X connect 16 0 23 0;
#X connect 17 0 30 0;
#X connect 17 0 32 0;
#X connect 17 2 29 0;
#X connect 17 2 31 0;
#X connect 18 0 22 0;
#X connect 18 1 20 0;
#X connect 18 1 24 0;
#X connect 21 0 23 1;
#X connect 23 0 17 0;
#X connect 25 0 27 1;
#X connect 26 0 28 1;
#X connect 27 0 6 0;
#X connect 28 0 25 0;
#X connect 31 0 27 0;
#X connect 31 1 28 0;
#X connect 32 0 10 0;
#X connect 32 1 11 0;
