#N canvas 549 23 839 695 10;
#X declare -path abs;
#X declare -path abs/Rhodey;
#X declare -path abs/Rhodey/rj;
#X declare -path abs/Chords-Roll;
#X obj 657 113 s maxVolume;
#X text 632 49 CONFIG SOUND DEVICES VOLUME;
#N canvas 0 23 257 177 SDmaxVol 0;
#X obj 29 100 /;
#X msg 29 80 1;
#X floatatom 80 123 5 0 0 0 - - -, f 5;
#X text 27 13 CONFIG SOUND DEVICES VOLUME;
#X text 68 41 number of devices;
#X obj 29 123 outlet;
#X obj 29 40 inlet;
#X obj 29 60 t b f;
#X connect 0 0 2 0;
#X connect 0 0 5 0;
#X connect 1 0 0 0;
#X connect 6 0 7 0;
#X connect 7 0 1 0;
#X connect 7 1 0 1;
#X restore 657 93 pd SDmaxVol;
#X floatatom 745 114 5 0 0 0 - - -, f 5;
#X obj 571 24 loadbang;
#X obj 430 475 *~ 0.9;
#X obj 431 508 dac~;
#X obj 105 359 line~;
#X obj 123 316 r maxVolume;
#X obj 38 396 *~;
#X obj 105 337 *;
#X obj 36 584 declare -path abs;
#X obj 36 627 declare -path abs/Rhodey;
#X obj 36 648 declare -path abs/Rhodey/rj;
#X obj 36 605 declare -path abs/Chords-Roll;
#X obj 38 167 r objectId;
#X obj 38 223 route 0 1 2 3;
#N canvas 308 222 635 295 receiveGameEngine2 0;
#X obj 29 69 oscparse;
#X msg 29 19 listen 9002;
#X obj 29 44 netreceive -u -b 9002;
#X obj 52 195 outlet;
#X text 209 96 objectId, f 9;
#X text 277 96 state, f 9;
#X text 344 96 preset, f 9;
#X obj 78 149 outlet;
#X obj 29 96 unpack s 0 0 0 0 0 0 0 0 0;
#X obj 78 126 pack 0 0 0 0 0 0 0 0;
#X text 408 96 param1-2-3-4-5-6;
#X connect 0 0 8 0;
#X connect 1 0 2 0;
#X connect 2 0 0 0;
#X connect 8 1 3 0;
#X connect 8 2 9 0;
#X connect 8 3 9 1;
#X connect 8 4 9 2;
#X connect 8 5 9 3;
#X connect 8 6 9 4;
#X connect 8 7 9 5;
#X connect 8 8 9 6;
#X connect 8 9 9 7;
#X connect 9 0 7 0;
#X restore 35 26 pd receiveGameEngine2;
#X obj 48 58 print objectId;
#X obj 179 80 s datas;
#X obj 126 163 r datas;
#X obj 35 82 s objectId;
#X obj 38 192 list append l;
#X obj 630 352 line~;
#X obj 648 309 r maxVolume;
#X obj 549 389 *~;
#X obj 630 330 *;
#X obj 561 265 bng 15 250 50 0 empty empty empty 17 7 0 10 -262144
-1 -1;
#X obj 54 269 bng 15 250 50 0 empty empty empty 17 7 0 10 -262144 -1
-1;
#X obj 38 298 SD-grelot3;
#X obj 549 291 SD-bolstick3;
#X obj 192 55 print datas (state preset param1-2-3-4-5-6;
#X obj 325 361 line~;
#X obj 343 318 r maxVolume;
#X obj 258 398 *~;
#X obj 325 339 *;
#X obj 274 271 bng 15 250 50 0 empty empty empty 17 7 0 10 -262144
-1 -1;
#X obj 258 300 SD-ocarina;
#X msg 530 90 \; pd dsp 1;
#X msg 636 66 3;
#X connect 2 0 3 0;
#X connect 2 0 0 0;
#X connect 4 0 39 0;
#X connect 4 0 38 0;
#X connect 5 0 6 0;
#X connect 5 0 6 1;
#X connect 7 0 9 1;
#X connect 8 0 10 1;
#X connect 9 0 5 0;
#X connect 10 0 7 0;
#X connect 15 0 22 0;
#X connect 16 0 28 0;
#X connect 16 0 29 0;
#X connect 16 1 36 0;
#X connect 16 1 37 0;
#X connect 16 2 27 0;
#X connect 16 2 30 0;
#X connect 17 0 21 0;
#X connect 17 1 19 0;
#X connect 17 1 31 0;
#X connect 20 0 22 1;
#X connect 22 0 16 0;
#X connect 23 0 25 1;
#X connect 24 0 26 1;
#X connect 25 0 5 0;
#X connect 26 0 23 0;
#X connect 29 0 9 0;
#X connect 29 1 10 0;
#X connect 30 0 25 0;
#X connect 30 1 26 0;
#X connect 32 0 34 1;
#X connect 33 0 35 1;
#X connect 34 0 5 0;
#X connect 35 0 32 0;
#X connect 37 0 34 0;
#X connect 37 1 35 0;
#X connect 39 0 2 0;
