#N canvas 675 244 967 489 10;
#X text 36 35 TEST;
#X msg 41 90 connect localhost 9002;
#X obj 41 67 loadbang;
#X msg 49 114 disconnect;
#N canvas 0 50 759 551 Rpi_sendOSC 0;
#X obj 33 252 netsend -u -b;
#X obj 63 189 list prepend send;
#X obj 63 214 list trim;
#X text 128 253 send as UDP;
#X obj 64 141 oscformat datas;
#X text 34 38 SOUNDDEVICE0;
#X obj 35 70 inlet;
#X obj 64 98 inlet;
#X connect 1 0 2 0;
#X connect 2 0 0 0;
#X connect 4 0 1 0;
#X connect 6 0 0 0;
#X connect 7 0 4 0;
#X restore 41 454 pd Rpi_sendOSC;
#X msg 72 247 1;
#X msg 107 247 2;
#X msg 140 248 3;
#X msg 174 248 4;
#X msg 212 248 5;
#X obj 147 378 bng 15 250 50 0 empty empty empty 17 7 0 10 -262144
-1 -1;
#X obj 290 174 tgl 15 0 empty empty empty 17 7 0 10 -262144 -1 -1 1
1;
#X text 67 227 presetId (+ send);
#X obj 290 199 t b f;
#X text 168 378 send;
#X text 7 319 objectId (+ send);
#X msg 11 340 0;
#X msg 46 340 1;
#X text 289 154 state;
#X obj 148 283 t b f;
#X msg 81 340 2;
#X msg 116 340 3;
#X obj 433 276 t b f;
#X text 431 233 param1;
#X obj 436 253 hsl 60 15 0 1024 0 0 empty empty empty -2 -8 0 10 -262144
-1 -1 900 1;
#X obj 503 326 t b f;
#X obj 506 303 hsl 60 15 0 1024 0 0 empty empty empty -2 -8 0 10 -262144
-1 -1 4400 1;
#X obj 573 366 t b f;
#X obj 579 342 hsl 60 15 0 1024 0 0 empty empty empty -2 -8 0 10 -262144
-1 -1 0 1;
#X text 501 283 param2;
#X text 571 323 param3;
#X floatatom 514 251 5 0 0 0 - - -, f 5;
#X msg 437 169 1;
#X msg 467 169 2;
#X msg 498 169 3;
#X msg 529 169 4;
#X msg 563 169 5;
#X msg 596 169 6;
#X text 433 149 param1 (face);
#X obj 437 196 t b f;
#X obj 79 201 loadbang;
#X obj 147 418 pack f f f f f f;
#X connect 1 0 4 0;
#X connect 2 0 1 0;
#X connect 3 0 4 0;
#X connect 5 0 19 0;
#X connect 6 0 19 0;
#X connect 7 0 19 0;
#X connect 8 0 19 0;
#X connect 9 0 19 0;
#X connect 10 0 41 0;
#X connect 11 0 13 0;
#X connect 13 0 10 0;
#X connect 13 1 41 1;
#X connect 16 0 41 0;
#X connect 17 0 41 0;
#X connect 19 0 10 0;
#X connect 19 1 41 2;
#X connect 20 0 41 0;
#X connect 21 0 41 0;
#X connect 24 0 22 0;
#X connect 24 0 31 0;
#X connect 25 0 10 0;
#X connect 25 1 41 4;
#X connect 26 0 25 0;
#X connect 27 0 10 0;
#X connect 27 1 41 5;
#X connect 28 0 27 0;
#X connect 32 0 39 0;
#X connect 33 0 39 0;
#X connect 34 0 39 0;
#X connect 35 0 39 0;
#X connect 36 0 39 0;
#X connect 37 0 39 0;
#X connect 39 0 10 0;
#X connect 39 1 41 3;
#X connect 40 0 5 0;
#X connect 41 0 4 1;
