#N canvas 215 87 1242 620 10;
#X text 36 35 TEST;
#X msg 41 90 connect localhost 9002;
#X obj 41 67 loadbang;
#X msg 53 114 disconnect;
#N canvas 921 55 759 551 Rpi_sendOSC 0;
#X obj 33 252 netsend -u -b;
#X obj 63 189 list prepend send;
#X obj 63 214 list trim;
#X text 138 253 send as UDP;
#X obj 35 70 inlet;
#X obj 64 98 inlet;
#X obj 64 141 oscformat play;
#X obj 12 113 bng 15 250 50 0 empty empty empty 17 7 0 10 -262144 -1
-1;
#X text 31 44 SOUNDDEVICE0;
#X connect 1 0 2 0;
#X connect 2 0 0 0;
#X connect 4 0 0 0;
#X connect 4 0 7 0;
#X connect 5 0 6 0;
#X connect 6 0 1 0;
#X restore 41 454 pd Rpi_sendOSC;
#X obj 147 378 bng 15 250 50 0 empty empty empty 17 7 0 10 -262144
-1 -1;
#X obj 290 174 tgl 15 0 empty empty empty 17 7 0 10 -261682 -1 -1 0
1;
#X text 143 231 presetId (+ send);
#X obj 290 199 t b f;
#X text 168 378 send;
#X text 7 306 objectId (+ send);
#X obj 148 273 t b f;
#X obj 373 230 t b f;
#X obj 373 174 hradio 15 1 1 8 empty empty empty 0 -8 0 10 -261682
-1 -1 1;
#X obj 148 250 hradio 15 1 1 5 empty empty empty 0 -8 0 10 -261682
-1 -1 0;
#X obj 11 339 hradio 15 1 1 4 empty empty empty 0 -8 0 10 -261682 -1
-1 3;
#X text 489 104 param id;
#X text 377 154 param data;
#X obj 482 122 hradio 15 1 1 6 empty empty empty 0 -8 0 10 -261682
-1 -1 2;
#X obj 400 287 list prepend;
#X obj 769 215 tgl 15 0 empty empty empty 17 7 0 10 -261682 -1 -1 0
1;
#X obj 810 215 tgl 15 0 empty empty empty 17 7 0 10 -261682 -1 -1 0
1;
#X msg 834 327 0;
#X msg 864 327 1;
#X msg 894 327 2;
#X msg 924 327 3;
#X obj 834 361 s \$0-paramId;
#X obj 482 85 r \$0-paramId;
#X obj 373 134 r \$0-paramData;
#X obj 400 309 route 0 1 2 3 4 5;
#X obj 147 418 pack f f f f f f f f f;
#X obj 856 215 tgl 15 0 empty empty empty 17 7 0 10 -261682 -1 -1 0
1;
#X obj 897 215 tgl 15 0 empty empty empty 17 7 0 10 -261682 -1 -1 0
1;
#X obj 727 361 s \$0-paramData;
#X obj 730 248 t f f;
#X obj 771 248 t f f;
#X obj 817 248 t f f;
#X obj 858 248 t f f;
#X obj 718 93 bng 15 250 50 0 empty empty empty 17 7 0 10 -261682 -1
-1;
#X obj 748 93 bng 15 250 50 0 empty empty empty 17 7 0 10 -261682 -1
-1;
#X obj 780 93 bng 15 250 50 0 empty empty empty 17 7 0 10 -261682 -1
-1;
#X obj 810 93 bng 15 250 50 0 empty empty empty 17 7 0 10 -261682 -1
-1;
#X obj 961 70 loadbang;
#X obj 756 145 delay;
#X obj 806 145 delay;
#X obj 856 145 delay;
#X obj 909 145 delay;
#X obj 1002 96 bng 15 250 50 0 empty empty empty 17 7 0 10 -262144
-1 -1;
#X text 623 49 Param data &id (ocarina);
#X text 664 197 long play keyboard -->;
#X text 626 71 short play keyboard -->;
#X obj 961 94 300;
#X obj 513 201 hsl 60 15 0 1 0 0 empty empty empty -2 -8 0 10 -261682
-1 -1 0 1;
#X floatatom 582 202 5 0 0 0 - - -, f 5;
#X text 508 181 param data 0 -> 1;
#X text 524 502 - ocarina : param0 [1 or 0] \, param1 [1 or 0] ...
-> param3 [1 or 0];
#X text 524 472 - grelot : param0 [0->1] \, param1 [0->1];
#X text 522 566 - corail : param0 [0->1] \, param1 [0->1] \, param2
[0->1];
#X text 7 320 grelot \, ocarina \, bolstick \, corail;
#X text 524 542 - bolstick : param0 [0->1] \, param1 [0->1] \, param3
[0->1];
#X text 528 440 DATA FORMAT;
#X text 962 114 note duration;
#X text 260 137 play or mute a device;
#X connect 1 0 4 0;
#X connect 2 0 1 0;
#X connect 3 0 4 0;
#X connect 5 0 30 0;
#X connect 6 0 8 0;
#X connect 8 0 5 0;
#X connect 8 1 30 1;
#X connect 11 0 5 0;
#X connect 11 1 30 2;
#X connect 12 0 5 0;
#X connect 12 1 19 0;
#X connect 13 0 12 0;
#X connect 14 0 11 0;
#X connect 15 0 30 0;
#X connect 18 0 19 1;
#X connect 19 0 29 0;
#X connect 20 0 34 0;
#X connect 21 0 35 0;
#X connect 22 0 26 0;
#X connect 23 0 26 0;
#X connect 24 0 26 0;
#X connect 25 0 26 0;
#X connect 27 0 18 0;
#X connect 28 0 13 0;
#X connect 29 0 30 3;
#X connect 29 1 30 4;
#X connect 29 2 30 5;
#X connect 29 3 30 6;
#X connect 29 4 30 7;
#X connect 29 5 30 8;
#X connect 30 0 4 1;
#X connect 31 0 36 0;
#X connect 32 0 37 0;
#X connect 34 0 33 0;
#X connect 34 1 22 0;
#X connect 35 0 33 0;
#X connect 35 1 23 0;
#X connect 36 0 33 0;
#X connect 36 1 24 0;
#X connect 37 0 33 0;
#X connect 37 1 25 0;
#X connect 38 0 43 0;
#X connect 38 0 20 0;
#X connect 39 0 44 0;
#X connect 39 0 21 0;
#X connect 40 0 45 0;
#X connect 40 0 31 0;
#X connect 41 0 46 0;
#X connect 41 0 32 0;
#X connect 42 0 51 0;
#X connect 43 0 20 0;
#X connect 44 0 21 0;
#X connect 45 0 31 0;
#X connect 46 0 32 0;
#X connect 47 0 51 0;
#X connect 51 0 43 1;
#X connect 51 0 44 1;
#X connect 51 0 45 1;
#X connect 51 0 46 1;
#X connect 52 0 53 0;
#X connect 52 0 12 0;
