#N canvas 0 119 1037 489 10;
#X text 36 35 TEST;
#X msg 41 90 connect localhost 9002;
#X obj 41 67 loadbang;
#X msg 49 114 disconnect;
#N canvas 0 23 759 551 Rpi_sendOSC 0;
#X obj 33 252 netsend -u -b;
#X obj 63 189 list prepend send;
#X obj 63 214 list trim;
#X text 128 253 send as UDP;
#X obj 64 141 oscformat datas;
#X text 34 38 SOUNDDEVICE0;
#X obj 35 70 inlet;
#X obj 64 98 inlet;
#X connect 1 0 2 0;
#X connect 2 0 0 0;
#X connect 4 0 1 0;
#X connect 6 0 0 0;
#X connect 7 0 4 0;
#X restore 41 454 pd Rpi_sendOSC;
#X obj 147 378 bng 15 250 50 0 empty empty empty 17 7 0 10 -262144
-1 -1;
#X obj 290 174 tgl 15 0 empty empty empty 17 7 0 10 -262144 -1 -1 1
1;
#X text 143 231 presetId (+ send);
#X obj 290 199 t b f;
#X text 168 378 send;
#X text 7 306 objectId (+ send);
#X text 289 154 state;
#X obj 148 273 t b f;
#X obj 150 185 loadbang;
#X text 7 320 grelot \, ocarina \, bolstick;
#X obj 484 191 hsl 60 15 0 1 0 0 empty empty empty -2 -8 0 10 -262144
-1 -1 3900 1;
#X floatatom 562 189 5 0 0 0 - - -, f 5;
#X obj 373 230 t b f;
#X obj 373 174 hradio 15 1 0 6 empty empty empty 0 -8 0 10 -262144
-1 -1 1;
#X obj 148 250 hradio 15 1 0 5 empty empty empty 0 -8 0 10 -262144
-1 -1 0;
#X obj 11 339 hradio 15 1 0 3 empty empty empty 0 -8 0 10 -262144 -1
-1 2;
#X text 477 104 param id;
#X text 377 154 param data;
#X text 479 171 param data;
#X obj 470 122 hradio 15 1 0 6 empty empty empty 0 -8 0 10 -262144
-1 -1 2;
#X obj 400 287 list prepend;
#X obj 642 130 tgl 15 0 empty empty empty 17 7 0 10 -262144 -1 -1 0
1;
#X obj 683 130 tgl 15 0 empty empty empty 17 7 0 10 -262144 -1 -1 0
1;
#X msg 741 287 0;
#X msg 771 287 1;
#X msg 801 287 2;
#X msg 831 287 3;
#X msg 861 287 4;
#X msg 891 287 5;
#X text 640 106 param data &id (ocarina);
#X obj 741 321 s \$0-paramId;
#X obj 470 85 r \$0-paramId;
#X obj 373 134 r \$0-paramData;
#X obj 400 309 route 0 1 2 3 4 5;
#X obj 147 418 pack f f f f f f f f f;
#X obj 729 130 tgl 15 0 empty empty empty 17 7 0 10 -262144 -1 -1 0
1;
#X obj 770 130 tgl 15 0 empty empty empty 17 7 0 10 -262144 -1 -1 0
1;
#X obj 813 130 tgl 15 0 empty empty empty 17 7 0 10 -262144 -1 -1 0
1;
#X obj 854 130 tgl 15 0 empty empty empty 17 7 0 10 -262144 -1 -1 0
1;
#X obj 639 321 s \$0-paramData;
#X obj 642 158 t f f;
#X obj 683 158 t f f;
#X obj 729 158 t f f;
#X obj 770 158 t f f;
#X obj 813 158 t f f;
#X obj 854 158 t f f;
#X connect 1 0 4 0;
#X connect 2 0 1 0;
#X connect 3 0 4 0;
#X connect 5 0 39 0;
#X connect 6 0 8 0;
#X connect 8 0 5 0;
#X connect 8 1 39 1;
#X connect 12 0 5 0;
#X connect 12 1 39 2;
#X connect 13 0 19 0;
#X connect 15 0 16 0;
#X connect 15 0 17 0;
#X connect 17 0 5 0;
#X connect 17 1 25 0;
#X connect 18 0 17 0;
#X connect 19 0 12 0;
#X connect 20 0 39 0;
#X connect 24 0 25 1;
#X connect 25 0 38 0;
#X connect 26 0 45 0;
#X connect 27 0 46 0;
#X connect 28 0 35 0;
#X connect 29 0 35 0;
#X connect 30 0 35 0;
#X connect 31 0 35 0;
#X connect 32 0 35 0;
#X connect 33 0 35 0;
#X connect 36 0 24 0;
#X connect 37 0 18 0;
#X connect 38 0 39 3;
#X connect 38 1 39 4;
#X connect 38 2 39 5;
#X connect 38 3 39 6;
#X connect 38 4 39 7;
#X connect 38 5 39 8;
#X connect 39 0 4 1;
#X connect 40 0 47 0;
#X connect 41 0 48 0;
#X connect 42 0 49 0;
#X connect 43 0 50 0;
#X connect 45 0 44 0;
#X connect 45 1 28 0;
#X connect 46 0 44 0;
#X connect 46 1 29 0;
#X connect 47 0 44 0;
#X connect 47 1 30 0;
#X connect 48 0 44 0;
#X connect 48 1 31 0;
#X connect 49 0 44 0;
#X connect 49 1 32 0;
#X connect 50 0 44 0;
#X connect 50 1 33 0;
