#N canvas 686 203 529 312 10;
#N canvas 1249 155 450 300 receiveGameEngine 1;
#X obj 29 69 oscparse;
#X obj 28 133 outlet;
#X obj 28 154 outlet;
#X obj 28 175 outlet;
#X obj 29 196 outlet;
#X msg 29 19 listen 9002;
#X obj 29 44 netreceive -u -b 9002;
#X obj 29 94 unpack s 0 0 0 0 0 0 0;
#X obj 29 218 outlet;
#X obj 30 240 outlet;
#X obj 31 263 outlet;
#X obj 211 75 print;
#X connect 0 0 7 0;
#X connect 0 0 11 0;
#X connect 5 0 6 0;
#X connect 6 0 0 0;
#X connect 7 1 1 0;
#X connect 7 2 2 0;
#X connect 7 3 3 0;
#X connect 7 4 4 0;
#X connect 7 5 8 0;
#X connect 7 6 9 0;
#X connect 7 7 10 0;
#X restore 128 57 pd receiveGameEngine;
#X floatatom 132 122 5 0 0 0 - - -, f 5;
#X floatatom 132 140 5 0 0 0 - - -, f 5;
#X floatatom 132 159 5 0 0 0 - - -, f 5;
#X floatatom 132 177 5 0 0 0 - - -, f 5;
#X floatatom 132 195 5 0 0 0 - - -, f 5;
#X floatatom 132 214 5 0 0 0 - - -, f 5;
#X text 81 103 object;
#X text 81 141 preset;
#X text 88 121 state;
#X text 81 159 param1;
#X text 80 178 param2;
#X text 80 197 param3;
#X floatatom 132 103 5 0 0 0 - - -, f 5;
#X text 80 215 param4;
#X connect 0 0 13 0;
#X connect 0 1 1 0;
#X connect 0 2 2 0;
#X connect 0 3 3 0;
#X connect 0 4 4 0;
#X connect 0 5 5 0;
#X connect 0 6 6 0;
