#N canvas 255 24 1425 961 10;
#X obj 27 666 pack 0 0 0, f 11;
#X obj 27 692 route 1 2 3 4 5 6 7 8, f 81;
#X floatatom 346 234 5 0 0 0 - - -, f 5;
#X obj 346 206 stripnote;
#X obj 26 513 + 60;
#X obj 272 448 + 60;
#X obj 418 451 + 60;
#X obj 347 255 t b f;
#X floatatom 455 208 5 0 0 0 - - -, f 5;
#X obj 455 249 i;
#X floatatom 455 302 5 0 0 0 - - -, f 5;
#X obj 389 356 unpack 0 0 0 0;
#X obj 547 453 + 60;
#X obj 455 227 * 14;
#N canvas 0 100 1440 736 chords 0;
#X msg 239 276 0 4 7;
#X msg 239 300 0 3 7;
#X msg 239 324 0 5 7;
#X floatatom 430 175 5 0 0 0 - - -, f 5;
#X obj 375 219 i;
#X msg 239 376 0 4 7 11;
#X msg 239 349 0 4 8;
#X msg 238 401 0 4 7 10;
#X msg 239 423 0 3 7 10;
#X msg 239 450 0 3 6 10;
#X msg 240 479 0 3 6 9;
#X msg 239 577 0 12 24;
#X obj 375 247 route 0 1 2 3 4 5 6 7 8 9 10 11;
#X obj 329 94 inlet;
#X obj 369 177 bng 15 250 50 0 empty empty empty 17 7 0 10 -262144
-1 -1;
#X obj 463 109 inlet;
#X text 261 98 get it!;
#X obj 421 657 outlet;
#X msg 238 551 0 7;
#X msg 239 506 0 4;
#X msg 239 530 0 3;
#X connect 0 0 17 0;
#X connect 1 0 17 0;
#X connect 2 0 17 0;
#X connect 3 0 4 1;
#X connect 4 0 12 0;
#X connect 5 0 17 0;
#X connect 6 0 17 0;
#X connect 7 0 17 0;
#X connect 8 0 17 0;
#X connect 9 0 17 0;
#X connect 10 0 17 0;
#X connect 11 0 17 0;
#X connect 12 0 0 0;
#X connect 12 1 1 0;
#X connect 12 2 2 0;
#X connect 12 3 6 0;
#X connect 12 4 5 0;
#X connect 12 5 7 0;
#X connect 12 6 8 0;
#X connect 12 7 9 0;
#X connect 12 8 10 0;
#X connect 12 9 19 0;
#X connect 12 10 20 0;
#X connect 12 11 18 0;
#X connect 12 12 11 0;
#X connect 13 0 14 0;
#X connect 14 0 4 0;
#X connect 15 0 3 0;
#X connect 18 0 17 0;
#X connect 19 0 17 0;
#X connect 20 0 17 0;
#X restore 388 329 pd chords;
#X obj 221 538 f;
#X obj 250 476 t b f;
#X obj 221 510 delay;
#X obj 384 534 f;
#X obj 403 474 t b f;
#X obj 384 506 delay;
#X obj 520 551 f;
#X obj 543 481 t b f;
#X obj 520 523 delay;
#X floatatom 223 286 5 0 0 0 - - -, f 5;
#X obj 223 260 * 200;
#X obj 223 208 t f f;
#X obj 223 230 *;
#X obj 26 548 pack 0 100;
#X obj 223 561 pack 0 100;
#X obj 384 559 pack 0 100;
#X obj 522 579 pack 0 100;
#X obj 27 639 poly 8 1, f 11;
#X obj 201 341 * 1;
#X obj 245 340 * 2;
#X obj 291 344 * 3;
#X obj 455 271 change -1;
#X text 534 193 and then the chord is 'rolled' at a selectable speed
(knob3);
#X text 477 328 get the chord;
#X text 94 392 roll the chord using delays;
#X text 571 398 add the root;
#X text 534 179 A note is converted into a selected chord (knob2);
#X obj 939 229 bng 15 250 50 0 empty empty empty 17 7 0 10 -262144
-1 -1;
#X text 941 206 test;
#X obj 970 262 vsl 15 128 0 1 0 0 empty empty empty 0 -9 0 10 -262144
-1 -1 6350 1;
#X obj 1001 262 vsl 15 128 0 1 0 0 empty empty empty 0 -9 0 10 -262144
-1 -1 6350 1;
#X obj 1032 262 vsl 15 128 0 1 0 0 empty empty empty 0 -9 0 10 -262144
-1 -1 6350 1;
#X obj 1206 589 unpack;
#X floatatom 1206 619 5 0 0 0 - - -, f 5;
#X floatatom 1253 621 5 0 0 0 - - -, f 5;
#X obj 1206 687 pack;
#X obj 1253 648 / 1;
#X obj 1206 646 + 59;
#X text 1206 495 key number;
#X obj 938 262 vsl 15 128 0 1 0 0 empty empty empty 0 -9 0 10 -262144
-1 -1 2540 1;
#X text 1149 521 test;
#X obj 1206 555 pack 1 100;
#X floatatom 921 425 5 0 0 0 - - -, f 5;
#X floatatom 961 425 5 0 0 0 - - -, f 5;
#X floatatom 1004 425 5 0 0 0 - - -, f 5;
#X floatatom 1044 425 5 0 0 0 - - -, f 5;
#X floatatom 780 331 5 0 0 0 - - -, f 5;
#X obj 753 270 loadbang;
#X obj 16 18 inlet;
#X obj 123 18 inlet;
#X obj 16 94 s \$0-notes;
#X obj 1006 197 r \$0-knob1;
#X obj 1083 197 r \$0-knob2;
#X obj 1160 197 r \$0-knob3;
#X obj 1237 197 r \$0-knob4;
#X obj 780 308 r \$0-aux;
#X obj 780 353 s \$0-waveform;
#X obj 379 281 s \$0-root;
#X obj 314 428 r \$0-root;
#X obj 448 416 r \$0-root;
#X obj 571 419 r \$0-root;
#X obj 51 463 r \$0-root;
#X obj 1206 722 s \$0-notes;
#X obj 223 184 r \$0-knob3;
#X obj 346 182 r \$0-notes;
#X obj 455 186 r \$0-knob2;
#X obj 27 861 voice;
#X obj 58 751 r \$0-waveform;
#X obj 399 753 r \$0-knob4;
#X obj 232 949 outlet~;
#X obj 92 248 print notes;
#X msg 1213 513 25;
#X msg 1250 513 26;
#X msg 1289 513 27;
#X obj 123 94 s \$0-knob1;
#X floatatom 123 74 5 0 0 0 - - -, f 5;
#X obj 123 44 unpack f f f f f;
#X floatatom 203 74 5 0 0 0 - - -, f 5;
#X obj 203 94 s \$0-knob2;
#X floatatom 283 74 5 0 0 0 - - -, f 5;
#X floatatom 363 74 5 0 0 0 - - -, f 5;
#X obj 283 94 s \$0-knob3;
#X obj 363 94 s \$0-knob4;
#X floatatom 443 74 5 0 0 0 - - -, f 5;
#X obj 443 94 s \$0-aux;
#X floatatom 1268 695 5 0 0 0 - - -, f 5;
#X obj 97 862 voice;
#X obj 168 862 voice;
#X obj 309 863 voice;
#X obj 238 862 voice;
#X obj 379 864 voice;
#X obj 520 863 voice;
#X obj 450 862 voice;
#X obj 879 798 sig~;
#X obj 878 829 lop~ 5;
#X obj 879 727 / 100;
#X obj 879 749 mtof;
#X obj 879 771 / 8.1785;
#X obj 876 702 * 2400;
#X obj 873 677 r \$0-knob1;
#X obj 879 863 send~ chord-f;
#X msg 996 77 screenLine1 1: Tune \; screenLine2 2: Arpege style \;
screenLine3 3: Roll speed \; screenLine4 4: Decay time \; aux = Waveform
;
#X connect 0 0 1 0;
#X connect 1 0 81 0;
#X connect 1 1 101 0;
#X connect 1 2 102 0;
#X connect 1 3 104 0;
#X connect 1 4 103 0;
#X connect 1 5 105 0;
#X connect 1 6 107 0;
#X connect 1 7 106 0;
#X connect 2 0 7 0;
#X connect 3 0 2 0;
#X connect 4 0 28 0;
#X connect 5 0 16 0;
#X connect 6 0 19 0;
#X connect 7 0 14 0;
#X connect 7 1 72 0;
#X connect 8 0 13 0;
#X connect 9 0 36 0;
#X connect 10 0 14 1;
#X connect 11 0 4 0;
#X connect 11 1 5 0;
#X connect 11 2 6 0;
#X connect 11 3 12 0;
#X connect 12 0 22 0;
#X connect 13 0 9 0;
#X connect 14 0 11 0;
#X connect 15 0 29 0;
#X connect 16 0 17 0;
#X connect 16 1 15 1;
#X connect 17 0 15 0;
#X connect 18 0 30 0;
#X connect 19 0 20 0;
#X connect 19 1 18 1;
#X connect 20 0 18 0;
#X connect 21 0 31 0;
#X connect 22 0 23 0;
#X connect 22 1 21 1;
#X connect 23 0 21 0;
#X connect 24 0 33 0;
#X connect 24 0 34 0;
#X connect 24 0 35 0;
#X connect 25 0 24 0;
#X connect 26 0 27 0;
#X connect 26 1 27 1;
#X connect 27 0 25 0;
#X connect 28 0 32 0;
#X connect 29 0 32 0;
#X connect 30 0 32 0;
#X connect 31 0 32 0;
#X connect 32 0 0 0;
#X connect 32 1 0 1;
#X connect 32 2 0 2;
#X connect 33 0 17 1;
#X connect 34 0 20 1;
#X connect 35 0 23 1;
#X connect 36 0 10 0;
#X connect 42 0 44 0;
#X connect 42 0 45 0;
#X connect 42 0 46 0;
#X connect 42 0 54 0;
#X connect 44 0 58 0;
#X connect 45 0 59 0;
#X connect 46 0 60 0;
#X connect 47 0 48 0;
#X connect 47 1 49 0;
#X connect 48 0 52 0;
#X connect 49 0 51 0;
#X connect 50 0 77 0;
#X connect 51 0 50 1;
#X connect 52 0 50 0;
#X connect 52 0 100 0;
#X connect 54 0 57 0;
#X connect 56 0 47 0;
#X connect 61 0 71 0;
#X connect 62 0 61 0;
#X connect 63 0 65 0;
#X connect 64 0 91 0;
#X connect 66 0 54 0;
#X connect 67 0 44 0;
#X connect 68 0 45 0;
#X connect 69 0 46 0;
#X connect 70 0 61 0;
#X connect 73 0 5 1;
#X connect 74 0 6 1;
#X connect 75 0 12 1;
#X connect 76 0 4 1;
#X connect 78 0 26 0;
#X connect 79 0 3 0;
#X connect 79 0 85 0;
#X connect 80 0 8 0;
#X connect 81 0 84 0;
#X connect 82 0 81 1;
#X connect 82 0 101 1;
#X connect 82 0 102 1;
#X connect 82 0 103 1;
#X connect 82 0 104 1;
#X connect 82 0 105 1;
#X connect 82 0 106 1;
#X connect 82 0 107 1;
#X connect 83 0 81 2;
#X connect 83 0 101 2;
#X connect 83 0 102 2;
#X connect 83 0 103 2;
#X connect 83 0 104 2;
#X connect 83 0 105 2;
#X connect 83 0 106 2;
#X connect 83 0 107 2;
#X connect 86 0 56 0;
#X connect 87 0 56 0;
#X connect 88 0 56 0;
#X connect 90 0 89 0;
#X connect 91 0 90 0;
#X connect 91 1 92 0;
#X connect 91 2 94 0;
#X connect 91 3 95 0;
#X connect 91 4 98 0;
#X connect 92 0 93 0;
#X connect 94 0 96 0;
#X connect 95 0 97 0;
#X connect 98 0 99 0;
#X connect 101 0 84 0;
#X connect 102 0 84 0;
#X connect 103 0 84 0;
#X connect 104 0 84 0;
#X connect 105 0 84 0;
#X connect 106 0 84 0;
#X connect 107 0 84 0;
#X connect 108 0 109 0;
#X connect 109 0 115 0;
#X connect 110 0 111 0;
#X connect 111 0 112 0;
#X connect 112 0 108 0;
#X connect 113 0 110 0;
#X connect 114 0 113 0;
